<?xml version="1.0" encoding="utf-8" standalone="no"?>
<!DOCTYPE svg PUBLIC "-//W3C//DTD SVG 1.1//EN"
  "http://www.w3.org/Graphics/SVG/1.1/DTD/svg11.dtd">
<svg xmlns:xlink="http://www.w3.org/1999/xlink" width="598.137443pt" height="371.75263pt" viewBox="0 0 598.137443 371.75263" xmlns="http://www.w3.org/2000/svg" version="1.1">
 <metadata>
  <rdf:RDF xmlns:dc="http://purl.org/dc/elements/1.1/" xmlns:cc="http://creativecommons.org/ns#" xmlns:rdf="http://www.w3.org/1999/02/22-rdf-syntax-ns#">
   <cc:Work>
    <dc:type rdf:resource="http://purl.org/dc/dcmitype/StillImage"/>
    <dc:date>2024-06-10T11:09:02.062824</dc:date>
    <dc:format>image/svg+xml</dc:format>
    <dc:creator>
     <cc:Agent>
      <dc:title>Matplotlib v3.5.1, https://matplotlib.org/</dc:title>
     </cc:Agent>
    </dc:creator>
   </cc:Work>
  </rdf:RDF>
 </metadata>
 <defs>
  <style type="text/css">*{stroke-linejoin: round; stroke-linecap: butt}</style>
 </defs>
 <g id="figure_1">
  <g id="patch_1">
   <path d="M 0 371.75263 
L 598.137443 371.75263 
L 598.137443 0 
L 0 0 
L 0 371.75263 
z
" style="fill: none"/>
  </g>
  <g id="axes_1">
   <g id="patch_2">
    <path d="M 32.937443 339.84 
L 590.937443 339.84 
L 590.937443 7.2 
L 32.937443 7.2 
L 32.937443 339.84 
z
" style="fill: none"/>
   </g>
   <g id="matplotlib.axis_1">
    <g id="xtick_1">
     <g id="line2d_1">
      <path d="M 94.534846 339.84 
L 94.534846 7.2 
" clip-path="url(#p1b89f322a3)" style="fill: none; stroke: #b0b0b0; stroke-width: 0.8; stroke-linecap: square"/>
     </g>
     <g id="line2d_2">
      <defs>
       <path id="m73700f8963" d="M 0 0 
L 0 3.5 
" style="stroke: #000000; stroke-width: 0.8"/>
      </defs>
      <g>
       <use xlink:href="#m73700f8963" x="94.534846" y="339.84" style="stroke: #000000; stroke-width: 0.8"/>
      </g>
     </g>
     <g id="text_1">
      <!-- $\mathdefault{−6}$ -->
      <g transform="translate(82.101741 360.676997)scale(0.2 -0.2)">
       <defs>
        <path id="CMSY10-0" d="M 4218 1472 
C 4326 1472 4442 1472 4442 1600 
C 4442 1728 4326 1728 4218 1728 
L 755 1728 
C 646 1728 531 1728 531 1600 
C 531 1472 646 1472 755 1472 
L 4218 1472 
z
" transform="scale(0.015625)"/>
        <path id="CMSS17-36" d="M 2496 4159 
C 2227 4268 2035 4288 1856 4288 
C 1024 4288 250 3408 250 2023 
C 250 268 986 -128 1510 -128 
C 1798 -128 2086 -39 2362 281 
C 2643 619 2752 900 2752 1392 
C 2752 2183 2362 2886 1779 2886 
C 1357 2886 992 2662 768 2381 
C 832 3290 1254 3897 1862 3897 
C 2029 3897 2246 3871 2496 3760 
L 2496 4159 
z
M 774 1372 
C 774 1423 774 1455 781 1551 
C 781 2049 1069 2496 1536 2496 
C 1837 2496 1990 2336 2106 2138 
C 2240 1889 2246 1653 2246 1392 
C 2246 1143 2246 894 2099 638 
C 1978 441 1818 268 1510 268 
C 902 268 800 1117 774 1372 
z
" transform="scale(0.015625)"/>
       </defs>
       <use xlink:href="#CMSY10-0" transform="scale(0.996264)"/>
       <use xlink:href="#CMSS17-36" transform="translate(77.487468 0)scale(0.996264)"/>
      </g>
     </g>
    </g>
    <g id="xtick_2">
     <g id="line2d_3">
      <path d="M 167.002378 339.84 
L 167.002378 7.2 
" clip-path="url(#p1b89f322a3)" style="fill: none; stroke: #b0b0b0; stroke-width: 0.8; stroke-linecap: square"/>
     </g>
     <g id="line2d_4">
      <g>
       <use xlink:href="#m73700f8963" x="167.002378" y="339.84" style="stroke: #000000; stroke-width: 0.8"/>
      </g>
     </g>
     <g id="text_2">
      <!-- $\mathdefault{−4}$ -->
      <g transform="translate(154.569274 360.676997)scale(0.2 -0.2)">
       <defs>
        <path id="CMSS17-34" d="M 2253 1088 
L 2835 1088 
L 2835 1478 
L 2253 1478 
L 2253 4224 
L 1690 4224 
L 166 1478 
L 166 1088 
L 1747 1088 
L 1747 0 
L 2253 0 
L 2253 1088 
z
M 659 1478 
C 1030 2139 1766 3474 1766 3927 
L 1766 1478 
L 659 1478 
z
" transform="scale(0.015625)"/>
       </defs>
       <use xlink:href="#CMSY10-0" transform="scale(0.996264)"/>
       <use xlink:href="#CMSS17-34" transform="translate(77.487468 0)scale(0.996264)"/>
      </g>
     </g>
    </g>
    <g id="xtick_3">
     <g id="line2d_5">
      <path d="M 239.469911 339.84 
L 239.469911 7.2 
" clip-path="url(#p1b89f322a3)" style="fill: none; stroke: #b0b0b0; stroke-width: 0.8; stroke-linecap: square"/>
     </g>
     <g id="line2d_6">
      <g>
       <use xlink:href="#m73700f8963" x="239.469911" y="339.84" style="stroke: #000000; stroke-width: 0.8"/>
      </g>
     </g>
     <g id="text_3">
      <!-- $\mathdefault{−2}$ -->
      <g transform="translate(227.036806 360.676997)scale(0.2 -0.2)">
       <defs>
        <path id="CMSS17-32" d="M 1651 1353 
C 1830 1538 2099 1761 2285 1984 
C 2464 2201 2701 2507 2701 2953 
C 2701 3655 2227 4288 1421 4288 
C 787 4288 422 3891 250 3272 
L 499 2928 
C 640 3508 838 3878 1338 3878 
C 1888 3878 2195 3431 2195 2940 
C 2195 2354 1747 1901 1408 1563 
C 1030 1187 659 805 301 409 
L 301 0 
L 2701 0 
L 2701 435 
L 1613 435 
C 1536 435 1459 428 1382 428 
L 742 428 
L 742 435 
L 1651 1353 
z
" transform="scale(0.015625)"/>
       </defs>
       <use xlink:href="#CMSY10-0" transform="scale(0.996264)"/>
       <use xlink:href="#CMSS17-32" transform="translate(77.487468 0)scale(0.996264)"/>
      </g>
     </g>
    </g>
    <g id="xtick_4">
     <g id="line2d_7">
      <path d="M 311.937443 339.84 
L 311.937443 7.2 
" clip-path="url(#p1b89f322a3)" style="fill: none; stroke: #b0b0b0; stroke-width: 0.8; stroke-linecap: square"/>
     </g>
     <g id="line2d_8">
      <g>
       <use xlink:href="#m73700f8963" x="311.937443" y="339.84" style="stroke: #000000; stroke-width: 0.8"/>
      </g>
     </g>
     <g id="text_4">
      <!-- $\mathdefault{0}$ -->
      <g transform="translate(307.253082 360.676997)scale(0.2 -0.2)">
       <defs>
        <path id="CMSS17-30" d="M 2758 2073 
C 2758 2439 2752 3120 2490 3647 
C 2227 4153 1805 4288 1504 4288 
C 1069 4288 698 4031 506 3621 
C 301 3191 243 2748 243 2073 
C 243 1611 262 1046 493 551 
C 755 6 1197 -128 1498 -128 
C 1894 -128 2278 83 2496 525 
C 2720 988 2758 1495 2758 2073 
z
M 1498 262 
C 1011 262 864 821 819 1007 
C 742 1328 730 1636 730 2144 
C 730 2542 730 2992 851 3345 
C 998 3756 1254 3897 1498 3897 
C 1971 3897 2125 3422 2176 3255 
C 2272 2915 2272 2516 2272 2144 
C 2272 1546 2272 262 1498 262 
z
" transform="scale(0.015625)"/>
       </defs>
       <use xlink:href="#CMSS17-30" transform="scale(0.996264)"/>
      </g>
     </g>
    </g>
    <g id="xtick_5">
     <g id="line2d_9">
      <path d="M 384.404976 339.84 
L 384.404976 7.2 
" clip-path="url(#p1b89f322a3)" style="fill: none; stroke: #b0b0b0; stroke-width: 0.8; stroke-linecap: square"/>
     </g>
     <g id="line2d_10">
      <g>
       <use xlink:href="#m73700f8963" x="384.404976" y="339.84" style="stroke: #000000; stroke-width: 0.8"/>
      </g>
     </g>
     <g id="text_5">
      <!-- $\mathdefault{2}$ -->
      <g transform="translate(379.720615 360.676997)scale(0.2 -0.2)">
       <use xlink:href="#CMSS17-32" transform="scale(0.996264)"/>
      </g>
     </g>
    </g>
    <g id="xtick_6">
     <g id="line2d_11">
      <path d="M 456.872508 339.84 
L 456.872508 7.2 
" clip-path="url(#p1b89f322a3)" style="fill: none; stroke: #b0b0b0; stroke-width: 0.8; stroke-linecap: square"/>
     </g>
     <g id="line2d_12">
      <g>
       <use xlink:href="#m73700f8963" x="456.872508" y="339.84" style="stroke: #000000; stroke-width: 0.8"/>
      </g>
     </g>
     <g id="text_6">
      <!-- $\mathdefault{4}$ -->
      <g transform="translate(452.188147 360.676997)scale(0.2 -0.2)">
       <use xlink:href="#CMSS17-34" transform="scale(0.996264)"/>
      </g>
     </g>
    </g>
    <g id="xtick_7">
     <g id="line2d_13">
      <path d="M 529.340041 339.84 
L 529.340041 7.2 
" clip-path="url(#p1b89f322a3)" style="fill: none; stroke: #b0b0b0; stroke-width: 0.8; stroke-linecap: square"/>
     </g>
     <g id="line2d_14">
      <g>
       <use xlink:href="#m73700f8963" x="529.340041" y="339.84" style="stroke: #000000; stroke-width: 0.8"/>
      </g>
     </g>
     <g id="text_7">
      <!-- $\mathdefault{6}$ -->
      <g transform="translate(524.65568 360.676997)scale(0.2 -0.2)">
       <use xlink:href="#CMSS17-36" transform="scale(0.996264)"/>
      </g>
     </g>
    </g>
   </g>
   <g id="matplotlib.axis_2">
    <g id="ytick_1">
     <g id="line2d_15">
      <path d="M 32.937443 298.595367 
L 590.937443 298.595367 
" clip-path="url(#p1b89f322a3)" style="fill: none; stroke: #b0b0b0; stroke-width: 0.8; stroke-linecap: square"/>
     </g>
     <g id="line2d_16">
      <defs>
       <path id="m3ec7ccc821" d="M 0 0 
L -3.5 0 
" style="stroke: #000000; stroke-width: 0.8"/>
      </defs>
      <g>
       <use xlink:href="#m3ec7ccc821" x="32.937443" y="298.595367" style="stroke: #000000; stroke-width: 0.8"/>
      </g>
     </g>
     <g id="text_8">
      <!-- $\mathdefault{0}$ -->
      <g transform="translate(16.568722 305.513865)scale(0.2 -0.2)">
       <use xlink:href="#CMSS17-30" transform="scale(0.996264)"/>
      </g>
     </g>
    </g>
    <g id="ytick_2">
     <g id="line2d_17">
      <path d="M 32.937443 223.926349 
L 590.937443 223.926349 
" clip-path="url(#p1b89f322a3)" style="fill: none; stroke: #b0b0b0; stroke-width: 0.8; stroke-linecap: square"/>
     </g>
     <g id="line2d_18">
      <g>
       <use xlink:href="#m3ec7ccc821" x="32.937443" y="223.926349" style="stroke: #000000; stroke-width: 0.8"/>
      </g>
     </g>
     <g id="text_9">
      <!-- $\mathdefault{20}$ -->
      <g transform="translate(7.2 230.844847)scale(0.2 -0.2)">
       <use xlink:href="#CMSS17-32" transform="scale(0.996264)"/>
       <use xlink:href="#CMSS17-30" transform="translate(46.843624 0)scale(0.996264)"/>
      </g>
     </g>
    </g>
    <g id="ytick_3">
     <g id="line2d_19">
      <path d="M 32.937443 149.257331 
L 590.937443 149.257331 
" clip-path="url(#p1b89f322a3)" style="fill: none; stroke: #b0b0b0; stroke-width: 0.8; stroke-linecap: square"/>
     </g>
     <g id="line2d_20">
      <g>
       <use xlink:href="#m3ec7ccc821" x="32.937443" y="149.257331" style="stroke: #000000; stroke-width: 0.8"/>
      </g>
     </g>
     <g id="text_10">
      <!-- $\mathdefault{40}$ -->
      <g transform="translate(7.2 156.175829)scale(0.2 -0.2)">
       <use xlink:href="#CMSS17-34" transform="scale(0.996264)"/>
       <use xlink:href="#CMSS17-30" transform="translate(46.843624 0)scale(0.996264)"/>
      </g>
     </g>
    </g>
    <g id="ytick_4">
     <g id="line2d_21">
      <path d="M 32.937443 74.588313 
L 590.937443 74.588313 
" clip-path="url(#p1b89f322a3)" style="fill: none; stroke: #b0b0b0; stroke-width: 0.8; stroke-linecap: square"/>
     </g>
     <g id="line2d_22">
      <g>
       <use xlink:href="#m3ec7ccc821" x="32.937443" y="74.588313" style="stroke: #000000; stroke-width: 0.8"/>
      </g>
     </g>
     <g id="text_11">
      <!-- $\mathdefault{60}$ -->
      <g transform="translate(7.2 81.506811)scale(0.2 -0.2)">
       <use xlink:href="#CMSS17-36" transform="scale(0.996264)"/>
       <use xlink:href="#CMSS17-30" transform="translate(46.843624 0)scale(0.996264)"/>
      </g>
     </g>
    </g>
   </g>
   <g id="line2d_23">
    <path d="M 58.30108 22.32 
L 63.425047 31.748668 
L 68.549014 41.028014 
L 73.672981 50.158036 
L 78.796947 59.138736 
L 83.920914 67.970113 
L 89.044881 76.652167 
L 94.168848 85.184898 
L 99.292815 93.568307 
L 104.416782 101.802393 
L 109.540749 109.887156 
L 114.664716 117.822596 
L 119.788683 125.608713 
L 124.91265 133.245508 
L 130.036617 140.73298 
L 135.160584 148.071129 
L 140.284551 155.259955 
L 145.408518 162.299458 
L 150.532485 169.189639 
L 155.656452 175.930497 
L 160.780419 182.522032 
L 165.904385 188.964244 
L 171.028352 195.257133 
L 176.152319 201.4007 
L 181.276286 207.394944 
L 186.400253 213.239865 
L 191.52422 218.935463 
L 196.648187 224.481738 
L 201.772154 229.878691 
L 206.896121 235.126321 
L 212.020088 240.224628 
L 217.144055 245.173612 
L 222.268022 249.973273 
L 227.391989 254.623612 
L 232.515956 259.124628 
L 237.639923 263.476321 
L 242.76389 267.678691 
L 247.887857 271.731738 
L 253.011823 275.635463 
L 258.13579 279.389865 
L 263.259757 282.994944 
L 268.383724 286.4507 
L 273.507691 289.757133 
L 278.631658 292.914244 
L 283.755625 295.922032 
L 288.879592 298.780497 
L 294.003559 301.489639 
L 299.127526 304.049458 
L 304.251493 306.459955 
L 309.37546 308.721129 
L 314.499427 310.83298 
L 319.623394 312.795508 
L 324.747361 314.608713 
L 329.871328 316.272596 
L 334.995295 317.787156 
L 340.119262 319.152393 
L 345.243228 320.368307 
L 350.367195 321.434898 
L 355.491162 322.352167 
L 360.615129 323.120113 
L 365.739096 323.738736 
L 370.863063 324.208036 
L 375.98703 324.528014 
L 381.110997 324.698668 
L 386.234964 324.72 
L 391.358931 324.592009 
L 396.482898 324.314695 
L 401.606865 323.888059 
L 406.730832 323.312099 
L 411.854799 322.586817 
L 416.978766 321.712212 
L 422.102733 320.688284 
L 427.2267 319.515034 
L 432.350666 318.19246 
L 437.474633 316.720564 
L 442.5986 315.099345 
L 447.722567 313.328804 
L 452.846534 311.408939 
L 457.970501 309.339752 
L 463.094468 307.121242 
L 468.218435 304.753409 
L 473.342402 302.236253 
L 478.466369 299.569774 
L 483.590336 296.753973 
L 488.714303 293.788849 
L 493.83827 290.674402 
L 498.962237 287.410632 
L 504.086204 283.99754 
L 509.210171 280.435124 
L 514.334138 276.723386 
L 519.458104 272.862325 
L 524.582071 268.851941 
L 529.706038 264.692235 
L 534.830005 260.383205 
L 539.953972 255.924853 
L 545.077939 251.317178 
L 550.201906 246.560181 
L 555.325873 241.65386 
L 560.44984 236.598217 
L 565.573807 231.393251 
" clip-path="url(#p1b89f322a3)" style="fill: none; stroke-dasharray: 11.1,4.8; stroke-dashoffset: 0; stroke: #6699cc; stroke-width: 3"/>
   </g>
   <g id="line2d_24">
    <path d="M 167.002378 194.058742 
L 167.734374 194.812974 
L 168.466369 195.567207 
L 169.198364 196.321439 
L 169.93036 197.075672 
L 170.662355 197.829904 
L 171.39435 198.584137 
L 172.126345 199.338369 
L 172.858341 200.092602 
L 173.590336 200.846834 
L 174.322331 201.601067 
L 175.054326 202.355299 
L 175.786322 203.109532 
L 176.518317 203.863764 
L 177.250312 204.617997 
L 177.982308 205.372229 
L 178.714303 206.126462 
L 179.446298 206.880694 
L 180.178293 207.634927 
L 180.910289 208.389159 
L 181.642284 209.143392 
L 182.374279 209.897624 
L 183.106274 210.651857 
L 183.83827 211.406089 
L 184.570265 212.160322 
L 185.30226 212.914554 
L 186.034256 213.668787 
L 186.766251 214.423019 
L 187.498246 215.177252 
L 188.230241 215.931484 
L 188.962237 216.685717 
L 189.694232 217.439949 
L 190.426227 218.194182 
L 191.158223 218.948414 
L 191.890218 219.702647 
L 192.622213 220.456879 
L 193.354208 221.211112 
L 194.086204 221.965344 
L 194.818199 222.719577 
L 195.550194 223.473809 
L 196.282189 224.228042 
L 197.014185 224.982274 
L 197.74618 225.736507 
L 198.478175 226.490739 
L 199.210171 227.244972 
L 199.942166 227.999204 
L 200.674161 228.753437 
L 201.406156 229.507669 
L 202.138152 230.261902 
L 202.870147 231.016134 
L 203.602142 231.770367 
L 204.334138 232.524599 
L 205.066133 233.278832 
L 205.798128 234.033064 
L 206.530123 234.787297 
L 207.262119 235.541529 
L 207.994114 236.295762 
L 208.726109 237.049994 
L 209.458104 237.804227 
L 210.1901 238.558459 
L 210.922095 239.312692 
L 211.65409 240.066924 
L 212.386086 240.821157 
L 213.118081 241.575389 
L 213.850076 242.329622 
L 214.582071 243.083854 
L 215.314067 243.838087 
L 216.046062 244.592319 
L 216.778057 245.346552 
L 217.510053 246.100784 
L 218.242048 246.855017 
L 218.974043 247.609249 
L 219.706038 248.363482 
L 220.438034 249.117714 
L 221.170029 249.871947 
L 221.902024 250.626179 
L 222.634019 251.380412 
L 223.366015 252.134644 
L 224.09801 252.888877 
L 224.830005 253.643109 
L 225.562001 254.397342 
L 226.293996 255.151574 
L 227.025991 255.905807 
L 227.757986 256.66004 
L 228.489982 257.414272 
L 229.221977 258.168505 
L 229.953972 258.922737 
L 230.685968 259.67697 
L 231.417963 260.431202 
L 232.149958 261.185435 
L 232.881953 261.939667 
L 233.613949 262.6939 
L 234.345944 263.448132 
L 235.077939 264.202365 
L 235.809934 264.956597 
L 236.54193 265.71083 
L 237.273925 266.465062 
L 238.00592 267.219295 
L 238.737916 267.973527 
L 239.469911 268.72776 
" clip-path="url(#p1b89f322a3)" style="fill: none; stroke: #004488; stroke-width: 3; stroke-linecap: square"/>
   </g>
   <g id="line2d_25">
    <path d="M 232.223158 262.6049 
L 232.955153 263.087609 
L 233.687148 263.570318 
L 234.419143 264.053027 
L 235.151139 264.535735 
L 235.883134 265.018444 
L 236.615129 265.501153 
L 237.347125 265.983862 
L 238.07912 266.466571 
L 238.811115 266.949279 
L 239.54311 267.431988 
L 240.275106 267.914697 
L 241.007101 268.397406 
L 241.739096 268.880115 
L 242.471091 269.362823 
L 243.203087 269.845532 
L 243.935082 270.328241 
L 244.667077 270.81095 
L 245.399073 271.293659 
L 246.131068 271.776367 
L 246.863063 272.259076 
L 247.595058 272.741785 
L 248.327054 273.224494 
L 249.059049 273.707203 
L 249.791044 274.189911 
L 250.52304 274.67262 
L 251.255035 275.155329 
L 251.98703 275.638038 
L 252.719025 276.120747 
L 253.451021 276.603455 
L 254.183016 277.086164 
L 254.915011 277.568873 
L 255.647006 278.051582 
L 256.379002 278.534291 
L 257.110997 279.016999 
L 257.842992 279.499708 
L 258.574988 279.982417 
L 259.306983 280.465126 
L 260.038978 280.947835 
L 260.770973 281.430543 
L 261.502969 281.913252 
L 262.234964 282.395961 
L 262.966959 282.87867 
L 263.698955 283.361379 
L 264.43095 283.844087 
L 265.162945 284.326796 
L 265.89494 284.809505 
L 266.626936 285.292214 
L 267.358931 285.774923 
L 268.090926 286.257631 
L 268.822921 286.74034 
L 269.554917 287.223049 
L 270.286912 287.705758 
L 271.018907 288.188467 
L 271.750903 288.671176 
L 272.482898 289.153884 
L 273.214893 289.636593 
L 273.946888 290.119302 
L 274.678884 290.602011 
L 275.410879 291.08472 
L 276.142874 291.567428 
L 276.87487 292.050137 
L 277.606865 292.532846 
L 278.33886 293.015555 
L 279.070855 293.498264 
L 279.802851 293.980972 
L 280.534846 294.463681 
L 281.266841 294.94639 
L 281.998836 295.429099 
L 282.730832 295.911808 
L 283.462827 296.394516 
L 284.194822 296.877225 
L 284.926818 297.359934 
L 285.658813 297.842643 
L 286.390808 298.325352 
L 287.122803 298.80806 
L 287.854799 299.290769 
L 288.586794 299.773478 
L 289.318789 300.256187 
L 290.050785 300.738896 
L 290.78278 301.221604 
L 291.514775 301.704313 
L 292.24677 302.187022 
L 292.978766 302.669731 
L 293.710761 303.15244 
L 294.442756 303.635148 
L 295.174751 304.117857 
L 295.906747 304.600566 
L 296.638742 305.083275 
L 297.370737 305.565984 
L 298.102733 306.048692 
L 298.834728 306.531401 
L 299.566723 307.01411 
L 300.298718 307.496819 
L 301.030714 307.979528 
L 301.762709 308.462236 
L 302.494704 308.944945 
L 303.2267 309.427654 
L 303.958695 309.910363 
L 304.69069 310.393072 
" clip-path="url(#p1b89f322a3)" style="fill: none; stroke: #eecc66; stroke-width: 3; stroke-linecap: square"/>
   </g>
   <g id="patch_3">
    <path d="M 32.937443 339.84 
L 32.937443 7.2 
" style="fill: none; stroke: #000000; stroke-width: 0.8; stroke-linejoin: miter; stroke-linecap: square"/>
   </g>
   <g id="patch_4">
    <path d="M 590.937443 339.84 
L 590.937443 7.2 
" style="fill: none; stroke: #000000; stroke-width: 0.8; stroke-linejoin: miter; stroke-linecap: square"/>
   </g>
   <g id="patch_5">
    <path d="M 32.937443 339.84 
L 590.937443 339.84 
" style="fill: none; stroke: #000000; stroke-width: 0.8; stroke-linejoin: miter; stroke-linecap: square"/>
   </g>
   <g id="patch_6">
    <path d="M 32.937443 7.2 
L 590.937443 7.2 
" style="fill: none; stroke: #000000; stroke-width: 0.8; stroke-linejoin: miter; stroke-linecap: square"/>
   </g>
   <g id="legend_1">
    <g id="line2d_26">
     <path d="M 435.49356 33.126022 
L 455.49356 33.126022 
L 475.49356 33.126022 
" style="fill: none; stroke-dasharray: 11.1,4.8; stroke-dashoffset: 0; stroke: #6699cc; stroke-width: 3"/>
    </g>
    <g id="text_12">
     <!-- f(x) -->
     <g transform="translate(491.49356 40.126022)scale(0.2 -0.2)">
      <defs>
       <path id="CMSS17-66" d="M 1075 2380 
L 1722 2380 
L 1722 2752 
L 1062 2752 
L 1062 3563 
C 1062 4013 1408 4089 1606 4089 
C 1670 4089 1850 4089 2080 4007 
L 2080 4428 
C 1933 4460 1754 4480 1613 4480 
C 1018 4480 602 3994 602 3366 
L 602 2752 
L 160 2752 
L 160 2380 
L 602 2380 
L 602 0 
L 1075 0 
L 1075 2380 
z
" transform="scale(0.015625)"/>
       <path id="CMSS17-28" d="M 1613 4800 
C 1267 4447 474 3627 474 1603 
C 474 -428 1267 -1242 1613 -1600 
L 2003 -1600 
C 1216 -781 960 366 960 1596 
C 960 2820 1203 3973 2003 4800 
L 1613 4800 
z
" transform="scale(0.015625)"/>
       <path id="CMSS17-78" d="M 1587 1420 
L 2656 2752 
L 2099 2752 
L 1363 1785 
L 602 2752 
L 32 2752 
L 1139 1420 
L 0 0 
L 563 0 
L 1363 1126 
L 2195 0 
L 2758 0 
L 1587 1420 
z
" transform="scale(0.015625)"/>
       <path id="CMSS17-29" d="M 723 -1600 
C 1069 -1248 1862 -428 1862 1596 
C 1862 3627 1069 4440 723 4800 
L 333 4800 
C 1120 3979 1376 2833 1376 1603 
C 1376 379 1133 -774 333 -1600 
L 723 -1600 
z
" transform="scale(0.015625)"/>
      </defs>
      <use xlink:href="#CMSS17-66" transform="scale(0.996264)"/>
      <use xlink:href="#CMSS17-28" transform="translate(28.626659 0)scale(0.996264)"/>
      <use xlink:href="#CMSS17-78" transform="translate(65.060573 0)scale(0.996264)"/>
      <use xlink:href="#CMSS17-29" transform="translate(108.060715 0)scale(0.996264)"/>
     </g>
    </g>
    <g id="line2d_27">
     <path d="M 435.49356 62.090666 
L 455.49356 62.090666 
L 475.49356 62.090666 
" style="fill: none; stroke: #004488; stroke-width: 3; stroke-linecap: square"/>
    </g>
    <g id="text_13">
     <!-- Iteration 0 -->
     <g transform="translate(491.49356 69.090666)scale(0.2 -0.2)">
      <defs>
       <path id="CMSS17-49" d="M 1094 4416 
L 557 4416 
L 557 0 
L 1094 0 
L 1094 4416 
z
" transform="scale(0.015625)"/>
       <path id="CMSS17-74" d="M 1069 2380 
L 1901 2380 
L 1901 2752 
L 1069 2752 
L 1069 3520 
L 614 3520 
L 614 2752 
L 109 2752 
L 109 2380 
L 602 2380 
L 602 751 
C 602 384 685 -64 1107 -64 
C 1427 -64 1722 25 2003 172 
L 1901 551 
C 1747 416 1562 339 1363 339 
C 1082 339 1069 699 1069 860 
L 1069 2380 
z
" transform="scale(0.015625)"/>
       <path id="CMSS17-65" d="M 2502 1375 
C 2502 1587 2490 2001 2285 2347 
C 2061 2713 1696 2816 1421 2816 
C 755 2816 192 2184 192 1363 
C 192 579 774 -64 1510 -64 
C 1798 -64 2150 19 2470 249 
C 2470 275 2458 414 2451 421 
C 2451 433 2432 629 2432 655 
C 2125 408 1773 326 1517 326 
C 1107 326 666 667 646 1375 
L 2502 1375 
z
M 698 1728 
C 781 2086 1062 2425 1421 2425 
C 1517 2425 1965 2412 2080 1728 
L 698 1728 
z
" transform="scale(0.015625)"/>
       <path id="CMSS17-72" d="M 954 1369 
C 954 1974 1395 2379 1958 2392 
L 1958 2816 
C 1549 2809 1165 2604 934 2270 
L 934 2783 
L 480 2783 
L 480 0 
L 954 0 
L 954 1369 
z
" transform="scale(0.015625)"/>
       <path id="CMSS17-61" d="M 2406 1789 
C 2406 2399 1978 2816 1402 2816 
C 1120 2816 813 2764 461 2559 
L 499 2133 
C 659 2250 934 2438 1395 2438 
C 1722 2438 1920 2185 1920 1782 
L 1920 1536 
C 896 1504 256 1209 256 711 
C 256 452 416 -64 947 -64 
C 1043 -64 1562 -52 1933 224 
L 1933 -13 
L 2406 -13 
L 2406 1789 
z
M 1920 824 
C 1920 711 1920 559 1728 446 
C 1562 339 1350 326 1261 326 
C 941 326 723 503 723 723 
C 723 1165 1722 1209 1920 1216 
L 1920 824 
z
" transform="scale(0.015625)"/>
       <path id="CMSS17-69" d="M 979 4224 
L 442 4224 
L 442 3686 
L 979 3686 
L 979 4224 
z
M 947 2752 
L 474 2752 
L 474 0 
L 947 0 
L 947 2752 
z
" transform="scale(0.015625)"/>
       <path id="CMSS17-6f" d="M 2829 1356 
C 2829 2175 2221 2816 1504 2816 
C 768 2816 173 2156 173 1356 
C 173 544 787 -64 1498 -64 
C 2227 -64 2829 563 2829 1356 
z
M 1504 339 
C 1050 339 659 710 659 1407 
C 659 2150 1114 2425 1498 2425 
C 1914 2425 2342 2124 2342 1407 
C 2342 684 1926 339 1504 339 
z
" transform="scale(0.015625)"/>
       <path id="CMSS17-6e" d="M 2618 1878 
C 2618 2283 2522 2816 1798 2816 
C 1389 2816 1120 2604 941 2386 
L 941 2783 
L 474 2783 
L 474 0 
L 960 0 
L 960 1556 
C 960 1962 1114 2425 1549 2425 
C 2112 2425 2131 2045 2131 1826 
L 2131 0 
L 2618 0 
L 2618 1878 
z
" transform="scale(0.015625)"/>
      </defs>
      <use xlink:href="#CMSS17-49" transform="scale(0.996264)"/>
      <use xlink:href="#CMSS17-74" transform="translate(25.783926 0)scale(0.996264)"/>
      <use xlink:href="#CMSS17-65" transform="translate(59.615492 0)scale(0.996264)"/>
      <use xlink:href="#CMSS17-72" transform="translate(101.254314 0)scale(0.996264)"/>
      <use xlink:href="#CMSS17-61" transform="translate(133.164087 0)scale(0.996264)"/>
      <use xlink:href="#CMSS17-74" transform="translate(178.086007 0)scale(0.996264)"/>
      <use xlink:href="#CMSS17-69" transform="translate(211.917574 0)scale(0.996264)"/>
      <use xlink:href="#CMSS17-6f" transform="translate(234.098297 0)scale(0.996264)"/>
      <use xlink:href="#CMSS17-6e" transform="translate(280.941921 0)scale(0.996264)"/>
      <use xlink:href="#CMSS17-30" transform="translate(360.375977 0)scale(0.996264)"/>
     </g>
    </g>
    <g id="line2d_28">
     <path d="M 435.49356 89.966299 
L 455.49356 89.966299 
L 475.49356 89.966299 
" style="fill: none; stroke: #eecc66; stroke-width: 3; stroke-linecap: square"/>
    </g>
    <g id="text_14">
     <!-- Iteration 1 -->
     <g transform="translate(491.49356 96.966299)scale(0.2 -0.2)">
      <defs>
       <path id="CMSS17-31" d="M 1818 4288 
L 1696 4288 
C 1350 3949 947 3902 538 3891 
L 538 3520 
C 723 3526 1024 3539 1325 3673 
L 1325 371 
L 570 371 
L 570 0 
L 2573 0 
L 2573 371 
L 1818 371 
L 1818 4288 
z
" transform="scale(0.015625)"/>
      </defs>
      <use xlink:href="#CMSS17-49" transform="scale(0.996264)"/>
      <use xlink:href="#CMSS17-74" transform="translate(25.783926 0)scale(0.996264)"/>
      <use xlink:href="#CMSS17-65" transform="translate(59.615492 0)scale(0.996264)"/>
      <use xlink:href="#CMSS17-72" transform="translate(101.254314 0)scale(0.996264)"/>
      <use xlink:href="#CMSS17-61" transform="translate(133.164087 0)scale(0.996264)"/>
      <use xlink:href="#CMSS17-74" transform="translate(178.086007 0)scale(0.996264)"/>
      <use xlink:href="#CMSS17-69" transform="translate(211.917574 0)scale(0.996264)"/>
      <use xlink:href="#CMSS17-6f" transform="translate(234.098297 0)scale(0.996264)"/>
      <use xlink:href="#CMSS17-6e" transform="translate(280.941921 0)scale(0.996264)"/>
      <use xlink:href="#CMSS17-31" transform="translate(360.375977 0)scale(0.996264)"/>
     </g>
    </g>
   </g>
  </g>
 </g>
 <defs>
  <clipPath id="p1b89f322a3">
   <rect x="32.937443" y="7.2" width="558" height="332.64"/>
  </clipPath>
 </defs>
</svg>
