<?xml version="1.0" encoding="utf-8" standalone="no"?>
<!DOCTYPE svg PUBLIC "-//W3C//DTD SVG 1.1//EN"
  "http://www.w3.org/Graphics/SVG/1.1/DTD/svg11.dtd">
<svg xmlns:xlink="http://www.w3.org/1999/xlink" width="598.137443pt" height="371.75263pt" viewBox="0 0 598.137443 371.75263" xmlns="http://www.w3.org/2000/svg" version="1.1">
 <metadata>
  <rdf:RDF xmlns:dc="http://purl.org/dc/elements/1.1/" xmlns:cc="http://creativecommons.org/ns#" xmlns:rdf="http://www.w3.org/1999/02/22-rdf-syntax-ns#">
   <cc:Work>
    <dc:type rdf:resource="http://purl.org/dc/dcmitype/StillImage"/>
    <dc:date>2024-06-10T11:10:24.010682</dc:date>
    <dc:format>image/svg+xml</dc:format>
    <dc:creator>
     <cc:Agent>
      <dc:title>Matplotlib v3.5.1, https://matplotlib.org/</dc:title>
     </cc:Agent>
    </dc:creator>
   </cc:Work>
  </rdf:RDF>
 </metadata>
 <defs>
  <style type="text/css">*{stroke-linejoin: round; stroke-linecap: butt}</style>
 </defs>
 <g id="figure_1">
  <g id="patch_1">
   <path d="M 0 371.75263 
L 598.137443 371.75263 
L 598.137443 0 
L 0 0 
L 0 371.75263 
z
" style="fill: none"/>
  </g>
  <g id="axes_1">
   <g id="patch_2">
    <path d="M 32.937443 339.84 
L 590.937443 339.84 
L 590.937443 7.2 
L 32.937443 7.2 
L 32.937443 339.84 
z
" style="fill: none"/>
   </g>
   <g id="matplotlib.axis_1">
    <g id="xtick_1">
     <g id="line2d_1">
      <path d="M 94.534846 339.84 
L 94.534846 7.2 
" clip-path="url(#p9be6c6ff9a)" style="fill: none; stroke: #b0b0b0; stroke-width: 0.8; stroke-linecap: square"/>
     </g>
     <g id="line2d_2">
      <defs>
       <path id="m6525c9931d" d="M 0 0 
L 0 3.5 
" style="stroke: #000000; stroke-width: 0.8"/>
      </defs>
      <g>
       <use xlink:href="#m6525c9931d" x="94.534846" y="339.84" style="stroke: #000000; stroke-width: 0.8"/>
      </g>
     </g>
     <g id="text_1">
      <!-- $\mathdefault{−6}$ -->
      <g transform="translate(82.101741 360.676997)scale(0.2 -0.2)">
       <defs>
        <path id="CMSY10-0" d="M 4218 1472 
C 4326 1472 4442 1472 4442 1600 
C 4442 1728 4326 1728 4218 1728 
L 755 1728 
C 646 1728 531 1728 531 1600 
C 531 1472 646 1472 755 1472 
L 4218 1472 
z
" transform="scale(0.015625)"/>
        <path id="CMSS17-36" d="M 2496 4159 
C 2227 4268 2035 4288 1856 4288 
C 1024 4288 250 3408 250 2023 
C 250 268 986 -128 1510 -128 
C 1798 -128 2086 -39 2362 281 
C 2643 619 2752 900 2752 1392 
C 2752 2183 2362 2886 1779 2886 
C 1357 2886 992 2662 768 2381 
C 832 3290 1254 3897 1862 3897 
C 2029 3897 2246 3871 2496 3760 
L 2496 4159 
z
M 774 1372 
C 774 1423 774 1455 781 1551 
C 781 2049 1069 2496 1536 2496 
C 1837 2496 1990 2336 2106 2138 
C 2240 1889 2246 1653 2246 1392 
C 2246 1143 2246 894 2099 638 
C 1978 441 1818 268 1510 268 
C 902 268 800 1117 774 1372 
z
" transform="scale(0.015625)"/>
       </defs>
       <use xlink:href="#CMSY10-0" transform="scale(0.996264)"/>
       <use xlink:href="#CMSS17-36" transform="translate(77.487468 0)scale(0.996264)"/>
      </g>
     </g>
    </g>
    <g id="xtick_2">
     <g id="line2d_3">
      <path d="M 167.002378 339.84 
L 167.002378 7.2 
" clip-path="url(#p9be6c6ff9a)" style="fill: none; stroke: #b0b0b0; stroke-width: 0.8; stroke-linecap: square"/>
     </g>
     <g id="line2d_4">
      <g>
       <use xlink:href="#m6525c9931d" x="167.002378" y="339.84" style="stroke: #000000; stroke-width: 0.8"/>
      </g>
     </g>
     <g id="text_2">
      <!-- $\mathdefault{−4}$ -->
      <g transform="translate(154.569274 360.676997)scale(0.2 -0.2)">
       <defs>
        <path id="CMSS17-34" d="M 2253 1088 
L 2835 1088 
L 2835 1478 
L 2253 1478 
L 2253 4224 
L 1690 4224 
L 166 1478 
L 166 1088 
L 1747 1088 
L 1747 0 
L 2253 0 
L 2253 1088 
z
M 659 1478 
C 1030 2139 1766 3474 1766 3927 
L 1766 1478 
L 659 1478 
z
" transform="scale(0.015625)"/>
       </defs>
       <use xlink:href="#CMSY10-0" transform="scale(0.996264)"/>
       <use xlink:href="#CMSS17-34" transform="translate(77.487468 0)scale(0.996264)"/>
      </g>
     </g>
    </g>
    <g id="xtick_3">
     <g id="line2d_5">
      <path d="M 239.469911 339.84 
L 239.469911 7.2 
" clip-path="url(#p9be6c6ff9a)" style="fill: none; stroke: #b0b0b0; stroke-width: 0.8; stroke-linecap: square"/>
     </g>
     <g id="line2d_6">
      <g>
       <use xlink:href="#m6525c9931d" x="239.469911" y="339.84" style="stroke: #000000; stroke-width: 0.8"/>
      </g>
     </g>
     <g id="text_3">
      <!-- $\mathdefault{−2}$ -->
      <g transform="translate(227.036806 360.676997)scale(0.2 -0.2)">
       <defs>
        <path id="CMSS17-32" d="M 1651 1353 
C 1830 1538 2099 1761 2285 1984 
C 2464 2201 2701 2507 2701 2953 
C 2701 3655 2227 4288 1421 4288 
C 787 4288 422 3891 250 3272 
L 499 2928 
C 640 3508 838 3878 1338 3878 
C 1888 3878 2195 3431 2195 2940 
C 2195 2354 1747 1901 1408 1563 
C 1030 1187 659 805 301 409 
L 301 0 
L 2701 0 
L 2701 435 
L 1613 435 
C 1536 435 1459 428 1382 428 
L 742 428 
L 742 435 
L 1651 1353 
z
" transform="scale(0.015625)"/>
       </defs>
       <use xlink:href="#CMSY10-0" transform="scale(0.996264)"/>
       <use xlink:href="#CMSS17-32" transform="translate(77.487468 0)scale(0.996264)"/>
      </g>
     </g>
    </g>
    <g id="xtick_4">
     <g id="line2d_7">
      <path d="M 311.937443 339.84 
L 311.937443 7.2 
" clip-path="url(#p9be6c6ff9a)" style="fill: none; stroke: #b0b0b0; stroke-width: 0.8; stroke-linecap: square"/>
     </g>
     <g id="line2d_8">
      <g>
       <use xlink:href="#m6525c9931d" x="311.937443" y="339.84" style="stroke: #000000; stroke-width: 0.8"/>
      </g>
     </g>
     <g id="text_4">
      <!-- $\mathdefault{0}$ -->
      <g transform="translate(307.253082 360.676997)scale(0.2 -0.2)">
       <defs>
        <path id="CMSS17-30" d="M 2758 2073 
C 2758 2439 2752 3120 2490 3647 
C 2227 4153 1805 4288 1504 4288 
C 1069 4288 698 4031 506 3621 
C 301 3191 243 2748 243 2073 
C 243 1611 262 1046 493 551 
C 755 6 1197 -128 1498 -128 
C 1894 -128 2278 83 2496 525 
C 2720 988 2758 1495 2758 2073 
z
M 1498 262 
C 1011 262 864 821 819 1007 
C 742 1328 730 1636 730 2144 
C 730 2542 730 2992 851 3345 
C 998 3756 1254 3897 1498 3897 
C 1971 3897 2125 3422 2176 3255 
C 2272 2915 2272 2516 2272 2144 
C 2272 1546 2272 262 1498 262 
z
" transform="scale(0.015625)"/>
       </defs>
       <use xlink:href="#CMSS17-30" transform="scale(0.996264)"/>
      </g>
     </g>
    </g>
    <g id="xtick_5">
     <g id="line2d_9">
      <path d="M 384.404976 339.84 
L 384.404976 7.2 
" clip-path="url(#p9be6c6ff9a)" style="fill: none; stroke: #b0b0b0; stroke-width: 0.8; stroke-linecap: square"/>
     </g>
     <g id="line2d_10">
      <g>
       <use xlink:href="#m6525c9931d" x="384.404976" y="339.84" style="stroke: #000000; stroke-width: 0.8"/>
      </g>
     </g>
     <g id="text_5">
      <!-- $\mathdefault{2}$ -->
      <g transform="translate(379.720615 360.676997)scale(0.2 -0.2)">
       <use xlink:href="#CMSS17-32" transform="scale(0.996264)"/>
      </g>
     </g>
    </g>
    <g id="xtick_6">
     <g id="line2d_11">
      <path d="M 456.872508 339.84 
L 456.872508 7.2 
" clip-path="url(#p9be6c6ff9a)" style="fill: none; stroke: #b0b0b0; stroke-width: 0.8; stroke-linecap: square"/>
     </g>
     <g id="line2d_12">
      <g>
       <use xlink:href="#m6525c9931d" x="456.872508" y="339.84" style="stroke: #000000; stroke-width: 0.8"/>
      </g>
     </g>
     <g id="text_6">
      <!-- $\mathdefault{4}$ -->
      <g transform="translate(452.188147 360.676997)scale(0.2 -0.2)">
       <use xlink:href="#CMSS17-34" transform="scale(0.996264)"/>
      </g>
     </g>
    </g>
    <g id="xtick_7">
     <g id="line2d_13">
      <path d="M 529.340041 339.84 
L 529.340041 7.2 
" clip-path="url(#p9be6c6ff9a)" style="fill: none; stroke: #b0b0b0; stroke-width: 0.8; stroke-linecap: square"/>
     </g>
     <g id="line2d_14">
      <g>
       <use xlink:href="#m6525c9931d" x="529.340041" y="339.84" style="stroke: #000000; stroke-width: 0.8"/>
      </g>
     </g>
     <g id="text_7">
      <!-- $\mathdefault{6}$ -->
      <g transform="translate(524.65568 360.676997)scale(0.2 -0.2)">
       <use xlink:href="#CMSS17-36" transform="scale(0.996264)"/>
      </g>
     </g>
    </g>
   </g>
   <g id="matplotlib.axis_2">
    <g id="ytick_1">
     <g id="line2d_15">
      <path d="M 32.937443 295.217561 
L 590.937443 295.217561 
" clip-path="url(#p9be6c6ff9a)" style="fill: none; stroke: #b0b0b0; stroke-width: 0.8; stroke-linecap: square"/>
     </g>
     <g id="line2d_16">
      <defs>
       <path id="m7f4f367fad" d="M 0 0 
L -3.5 0 
" style="stroke: #000000; stroke-width: 0.8"/>
      </defs>
      <g>
       <use xlink:href="#m7f4f367fad" x="32.937443" y="295.217561" style="stroke: #000000; stroke-width: 0.8"/>
      </g>
     </g>
     <g id="text_8">
      <!-- $\mathdefault{0}$ -->
      <g transform="translate(16.568722 302.136059)scale(0.2 -0.2)">
       <use xlink:href="#CMSS17-30" transform="scale(0.996264)"/>
      </g>
     </g>
    </g>
    <g id="ytick_2">
     <g id="line2d_17">
      <path d="M 32.937443 221.461463 
L 590.937443 221.461463 
" clip-path="url(#p9be6c6ff9a)" style="fill: none; stroke: #b0b0b0; stroke-width: 0.8; stroke-linecap: square"/>
     </g>
     <g id="line2d_18">
      <g>
       <use xlink:href="#m7f4f367fad" x="32.937443" y="221.461463" style="stroke: #000000; stroke-width: 0.8"/>
      </g>
     </g>
     <g id="text_9">
      <!-- $\mathdefault{20}$ -->
      <g transform="translate(7.2 228.379962)scale(0.2 -0.2)">
       <use xlink:href="#CMSS17-32" transform="scale(0.996264)"/>
       <use xlink:href="#CMSS17-30" transform="translate(46.843624 0)scale(0.996264)"/>
      </g>
     </g>
    </g>
    <g id="ytick_3">
     <g id="line2d_19">
      <path d="M 32.937443 147.705366 
L 590.937443 147.705366 
" clip-path="url(#p9be6c6ff9a)" style="fill: none; stroke: #b0b0b0; stroke-width: 0.8; stroke-linecap: square"/>
     </g>
     <g id="line2d_20">
      <g>
       <use xlink:href="#m7f4f367fad" x="32.937443" y="147.705366" style="stroke: #000000; stroke-width: 0.8"/>
      </g>
     </g>
     <g id="text_10">
      <!-- $\mathdefault{40}$ -->
      <g transform="translate(7.2 154.623864)scale(0.2 -0.2)">
       <use xlink:href="#CMSS17-34" transform="scale(0.996264)"/>
       <use xlink:href="#CMSS17-30" transform="translate(46.843624 0)scale(0.996264)"/>
      </g>
     </g>
    </g>
    <g id="ytick_4">
     <g id="line2d_21">
      <path d="M 32.937443 73.949268 
L 590.937443 73.949268 
" clip-path="url(#p9be6c6ff9a)" style="fill: none; stroke: #b0b0b0; stroke-width: 0.8; stroke-linecap: square"/>
     </g>
     <g id="line2d_22">
      <g>
       <use xlink:href="#m7f4f367fad" x="32.937443" y="73.949268" style="stroke: #000000; stroke-width: 0.8"/>
      </g>
     </g>
     <g id="text_11">
      <!-- $\mathdefault{60}$ -->
      <g transform="translate(7.2 80.867767)scale(0.2 -0.2)">
       <use xlink:href="#CMSS17-36" transform="scale(0.996264)"/>
       <use xlink:href="#CMSS17-30" transform="translate(46.843624 0)scale(0.996264)"/>
      </g>
     </g>
    </g>
   </g>
   <g id="line2d_23">
    <path d="M 58.30108 22.32 
L 63.425047 31.633391 
L 68.549014 40.799285 
L 73.672981 49.817682 
L 78.796947 58.688582 
L 83.920914 67.411984 
L 89.044881 75.98789 
L 94.168848 84.416298 
L 99.292815 92.697209 
L 104.416782 100.830623 
L 109.540749 108.81654 
L 114.664716 116.654959 
L 119.788683 124.345882 
L 124.91265 131.889307 
L 130.036617 139.285236 
L 135.160584 146.533667 
L 140.284551 153.634601 
L 145.408518 160.588037 
L 150.532485 167.393977 
L 155.656452 174.05242 
L 160.780419 180.563365 
L 165.904385 186.926813 
L 171.028352 193.142764 
L 176.152319 199.211218 
L 181.276286 205.132175 
L 186.400253 210.905635 
L 191.52422 216.531597 
L 196.648187 222.010062 
L 201.772154 227.341031 
L 206.896121 232.524502 
L 212.020088 237.560476 
L 217.144055 242.448952 
L 222.268022 247.189932 
L 227.391989 251.783415 
L 232.515956 256.2294 
L 237.639923 260.527888 
L 242.76389 264.678879 
L 247.887857 268.682373 
L 253.011823 272.53837 
L 258.13579 276.24687 
L 263.259757 279.807872 
L 268.383724 283.221377 
L 273.507691 286.487386 
L 278.631658 289.605897 
L 283.755625 292.576911 
L 288.879592 295.400427 
L 294.003559 298.076447 
L 299.127526 300.604969 
L 304.251493 302.985995 
L 309.37546 305.219523 
L 314.499427 307.305554 
L 319.623394 309.244088 
L 324.747361 311.035125 
L 329.871328 312.678664 
L 334.995295 314.174707 
L 340.119262 315.523252 
L 345.243228 316.7243 
L 350.367195 317.777851 
L 355.491162 318.683905 
L 360.615129 319.442462 
L 365.739096 320.053521 
L 370.863063 320.517084 
L 375.98703 320.833149 
L 381.110997 321.001717 
L 386.234964 321.022788 
L 391.358931 320.896362 
L 396.482898 320.622439 
L 401.606865 320.201019 
L 406.730832 319.632101 
L 411.854799 318.915686 
L 416.978766 318.051775 
L 422.102733 317.040366 
L 427.2267 315.881459 
L 432.350666 314.575056 
L 437.474633 313.121156 
L 442.5986 311.519758 
L 447.722567 309.770863 
L 452.846534 307.874472 
L 457.970501 305.830583 
L 463.094468 303.639196 
L 468.218435 301.300313 
L 473.342402 298.813933 
L 478.466369 296.180055 
L 483.590336 293.39868 
L 488.714303 290.469809 
L 493.83827 287.393439 
L 498.962237 284.169573 
L 504.086204 280.79821 
L 509.210171 277.27935 
L 514.334138 273.612992 
L 519.458104 269.799137 
L 524.582071 265.837785 
L 529.706038 261.728936 
L 534.830005 257.47259 
L 539.953972 253.068747 
L 545.077939 248.517406 
L 550.201906 243.818569 
L 555.325873 238.972234 
L 560.44984 233.978402 
L 565.573807 228.837073 
" clip-path="url(#p9be6c6ff9a)" style="fill: none; stroke-dasharray: 11.1,4.8; stroke-dashoffset: 0; stroke: #6699cc; stroke-width: 3"/>
   </g>
   <g id="line2d_24">
    <path d="M 384.404976 324.72 
L 385.136971 324.570998 
L 385.868966 324.421996 
L 386.600962 324.272993 
L 387.332957 324.123991 
L 388.064952 323.974989 
L 388.796947 323.825987 
L 389.528943 323.676984 
L 390.260938 323.527982 
L 390.992933 323.37898 
L 391.724929 323.229978 
L 392.456924 323.080976 
L 393.188919 322.931973 
L 393.920914 322.782971 
L 394.65291 322.633969 
L 395.384905 322.484967 
L 396.1169 322.335965 
L 396.848896 322.186962 
L 397.580891 322.03796 
L 398.312886 321.888958 
L 399.044881 321.739956 
L 399.776877 321.590953 
L 400.508872 321.441951 
L 401.240867 321.292949 
L 401.972862 321.143947 
L 402.704858 320.994945 
L 403.436853 320.845942 
L 404.168848 320.69694 
L 404.900844 320.547938 
L 405.632839 320.398936 
L 406.364834 320.249933 
L 407.096829 320.100931 
L 407.828825 319.951929 
L 408.56082 319.802927 
L 409.292815 319.653925 
L 410.024811 319.504922 
L 410.756806 319.35592 
L 411.488801 319.206918 
L 412.220796 319.057916 
L 412.952792 318.908914 
L 413.684787 318.759911 
L 414.416782 318.610909 
L 415.148777 318.461907 
L 415.880773 318.312905 
L 416.612768 318.163902 
L 417.344763 318.0149 
L 418.076759 317.865898 
L 418.808754 317.716896 
L 419.540749 317.567894 
L 420.272744 317.418891 
L 421.00474 317.269889 
L 421.736735 317.120887 
L 422.46873 316.971885 
L 423.200726 316.822882 
L 423.932721 316.67388 
L 424.664716 316.524878 
L 425.396711 316.375876 
L 426.128707 316.226874 
L 426.860702 316.077871 
L 427.592697 315.928869 
L 428.324692 315.779867 
L 429.056688 315.630865 
L 429.788683 315.481863 
L 430.520678 315.33286 
L 431.252674 315.183858 
L 431.984669 315.034856 
L 432.716664 314.885854 
L 433.448659 314.736851 
L 434.180655 314.587849 
L 434.91265 314.438847 
L 435.644645 314.289845 
L 436.37664 314.140843 
L 437.108636 313.99184 
L 437.840631 313.842838 
L 438.572626 313.693836 
L 439.304622 313.544834 
L 440.036617 313.395831 
L 440.768612 313.246829 
L 441.500607 313.097827 
L 442.232603 312.948825 
L 442.964598 312.799823 
L 443.696593 312.65082 
L 444.428589 312.501818 
L 445.160584 312.352816 
L 445.892579 312.203814 
L 446.624574 312.054812 
L 447.35657 311.905809 
L 448.088565 311.756807 
L 448.82056 311.607805 
L 449.552555 311.458803 
L 450.284551 311.3098 
L 451.016546 311.160798 
L 451.748541 311.011796 
L 452.480537 310.862794 
L 453.212532 310.713792 
L 453.944527 310.564789 
L 454.676522 310.415787 
L 455.408518 310.266785 
L 456.140513 310.117783 
L 456.872508 309.96878 
" clip-path="url(#p9be6c6ff9a)" style="fill: none; stroke: #004488; stroke-width: 3; stroke-linecap: square"/>
   </g>
   <g id="line2d_25">
    <path d="M 493.106274 291.529756 
L 493.83827 290.933747 
L 494.570265 290.337738 
L 495.30226 289.741729 
L 496.034256 289.145721 
L 496.766251 288.549712 
L 497.498246 287.953703 
L 498.230241 287.357694 
L 498.962237 286.761685 
L 499.694232 286.165676 
L 500.426227 285.569667 
L 501.158223 284.973659 
L 501.890218 284.37765 
L 502.622213 283.781641 
L 503.354208 283.185632 
L 504.086204 282.589623 
L 504.818199 281.993614 
L 505.550194 281.397605 
L 506.282189 280.801596 
L 507.014185 280.205588 
L 507.74618 279.609579 
L 508.478175 279.01357 
L 509.210171 278.417561 
L 509.942166 277.821552 
L 510.674161 277.225543 
L 511.406156 276.629534 
L 512.138152 276.033525 
L 512.870147 275.437517 
L 513.602142 274.841508 
L 514.334138 274.245499 
L 515.066133 273.64949 
L 515.798128 273.053481 
L 516.530123 272.457472 
L 517.262119 271.861463 
L 517.994114 271.265455 
L 518.726109 270.669446 
L 519.458104 270.073437 
L 520.1901 269.477428 
L 520.922095 268.881419 
L 521.65409 268.28541 
L 522.386086 267.689401 
L 523.118081 267.093392 
L 523.850076 266.497384 
L 524.582071 265.901375 
L 525.314067 265.305366 
L 526.046062 264.709357 
L 526.778057 264.113348 
L 527.510053 263.517339 
L 528.242048 262.92133 
L 528.974043 262.325322 
L 529.706038 261.729313 
L 530.438034 261.133304 
L 531.170029 260.537295 
L 531.902024 259.941286 
L 532.634019 259.345277 
L 533.366015 258.749268 
L 534.09801 258.153259 
L 534.830005 257.557251 
L 535.562001 256.961242 
L 536.293996 256.365233 
L 537.025991 255.769224 
L 537.757986 255.173215 
L 538.489982 254.577206 
L 539.221977 253.981197 
L 539.953972 253.385188 
L 540.685968 252.78918 
L 541.417963 252.193171 
L 542.149958 251.597162 
L 542.881953 251.001153 
L 543.613949 250.405144 
L 544.345944 249.809135 
L 545.077939 249.213126 
L 545.809934 248.617118 
L 546.54193 248.021109 
L 547.273925 247.4251 
L 548.00592 246.829091 
L 548.737916 246.233082 
L 549.469911 245.637073 
L 550.201906 245.041064 
L 550.933901 244.445055 
L 551.665897 243.849047 
L 552.397892 243.253038 
L 553.129887 242.657029 
L 553.861883 242.06102 
L 554.593878 241.465011 
L 555.325873 240.869002 
L 556.057868 240.272993 
L 556.789864 239.676984 
L 557.521859 239.080976 
L 558.253854 238.484967 
L 558.985849 237.888958 
L 559.717845 237.292949 
L 560.44984 236.69694 
L 561.181835 236.100931 
L 561.913831 235.504922 
L 562.645826 234.908914 
L 563.377821 234.312905 
L 564.109816 233.716896 
L 564.841812 233.120887 
L 565.573807 232.524878 
" clip-path="url(#p9be6c6ff9a)" style="fill: none; stroke: #eecc66; stroke-width: 3; stroke-linecap: square"/>
   </g>
   <g id="line2d_26">
    <path d="M 452.343287 311.755061 
L 453.075283 311.32668 
L 453.807278 310.898298 
L 454.539273 310.469917 
L 455.271269 310.041535 
L 456.003264 309.613154 
L 456.735259 309.184773 
L 457.467254 308.756391 
L 458.19925 308.32801 
L 458.931245 307.899629 
L 459.66324 307.471247 
L 460.395236 307.042866 
L 461.127231 306.614484 
L 461.859226 306.186103 
L 462.591221 305.757722 
L 463.323217 305.32934 
L 464.055212 304.900959 
L 464.787207 304.472578 
L 465.519202 304.044196 
L 466.251198 303.615815 
L 466.983193 303.187433 
L 467.715188 302.759052 
L 468.447184 302.330671 
L 469.179179 301.902289 
L 469.911174 301.473908 
L 470.643169 301.045527 
L 471.375165 300.617145 
L 472.10716 300.188764 
L 472.839155 299.760382 
L 473.571151 299.332001 
L 474.303146 298.90362 
L 475.035141 298.475238 
L 475.767136 298.046857 
L 476.499132 297.618476 
L 477.231127 297.190094 
L 477.963122 296.761713 
L 478.695117 296.333331 
L 479.427113 295.90495 
L 480.159108 295.476569 
L 480.891103 295.048187 
L 481.623099 294.619806 
L 482.355094 294.191425 
L 483.087089 293.763043 
L 483.819084 293.334662 
L 484.55108 292.90628 
L 485.283075 292.477899 
L 486.01507 292.049518 
L 486.747066 291.621136 
L 487.479061 291.192755 
L 488.211056 290.764374 
L 488.943051 290.335992 
L 489.675047 289.907611 
L 490.407042 289.479229 
L 491.139037 289.050848 
L 491.871032 288.622467 
L 492.603028 288.194085 
L 493.335023 287.765704 
L 494.067018 287.337323 
L 494.799014 286.908941 
L 495.531009 286.48056 
L 496.263004 286.052178 
L 496.994999 285.623797 
L 497.726995 285.195416 
L 498.45899 284.767034 
L 499.190985 284.338653 
L 499.922981 283.910272 
L 500.654976 283.48189 
L 501.386971 283.053509 
L 502.118966 282.625127 
L 502.850962 282.196746 
L 503.582957 281.768365 
L 504.314952 281.339983 
L 505.046947 280.911602 
L 505.778943 280.483221 
L 506.510938 280.054839 
L 507.242933 279.626458 
L 507.974929 279.198076 
L 508.706924 278.769695 
L 509.438919 278.341314 
L 510.170914 277.912932 
L 510.90291 277.484551 
L 511.634905 277.05617 
L 512.3669 276.627788 
L 513.098896 276.199407 
L 513.830891 275.771025 
L 514.562886 275.342644 
L 515.294881 274.914263 
L 516.026877 274.485881 
L 516.758872 274.0575 
L 517.490867 273.629119 
L 518.222862 273.200737 
L 518.954858 272.772356 
L 519.686853 272.343974 
L 520.418848 271.915593 
L 521.150844 271.487212 
L 521.882839 271.05883 
L 522.614834 270.630449 
L 523.346829 270.202068 
L 524.078825 269.773686 
L 524.81082 269.345305 
" clip-path="url(#p9be6c6ff9a)" style="fill: none; stroke: #994455; stroke-width: 3; stroke-linecap: square"/>
   </g>
   <g id="line2d_27">
    <path d="M 444.36792 314.620337 
L 445.099916 314.224752 
L 445.831911 313.829168 
L 446.563906 313.433583 
L 447.295902 313.037998 
L 448.027897 312.642414 
L 448.759892 312.246829 
L 449.491887 311.851244 
L 450.223883 311.455659 
L 450.955878 311.060075 
L 451.687873 310.66449 
L 452.419869 310.268905 
L 453.151864 309.873321 
L 453.883859 309.477736 
L 454.615854 309.082151 
L 455.34785 308.686567 
L 456.079845 308.290982 
L 456.81184 307.895397 
L 457.543835 307.499813 
L 458.275831 307.104228 
L 459.007826 306.708643 
L 459.739821 306.313058 
L 460.471817 305.917474 
L 461.203812 305.521889 
L 461.935807 305.126304 
L 462.667802 304.73072 
L 463.399798 304.335135 
L 464.131793 303.93955 
L 464.863788 303.543966 
L 465.595784 303.148381 
L 466.327779 302.752796 
L 467.059774 302.357212 
L 467.791769 301.961627 
L 468.523765 301.566042 
L 469.25576 301.170458 
L 469.987755 300.774873 
L 470.71975 300.379288 
L 471.451746 299.983703 
L 472.183741 299.588119 
L 472.915736 299.192534 
L 473.647732 298.796949 
L 474.379727 298.401365 
L 475.111722 298.00578 
L 475.843717 297.610195 
L 476.575713 297.214611 
L 477.307708 296.819026 
L 478.039703 296.423441 
L 478.771698 296.027857 
L 479.503694 295.632272 
L 480.235689 295.236687 
L 480.967684 294.841102 
L 481.69968 294.445518 
L 482.431675 294.049933 
L 483.16367 293.654348 
L 483.895665 293.258764 
L 484.627661 292.863179 
L 485.359656 292.467594 
L 486.091651 292.07201 
L 486.823647 291.676425 
L 487.555642 291.28084 
L 488.287637 290.885256 
L 489.019632 290.489671 
L 489.751628 290.094086 
L 490.483623 289.698501 
L 491.215618 289.302917 
L 491.947613 288.907332 
L 492.679609 288.511747 
L 493.411604 288.116163 
L 494.143599 287.720578 
L 494.875595 287.324993 
L 495.60759 286.929409 
L 496.339585 286.533824 
L 497.07158 286.138239 
L 497.803576 285.742655 
L 498.535571 285.34707 
L 499.267566 284.951485 
L 499.999562 284.5559 
L 500.731557 284.160316 
L 501.463552 283.764731 
L 502.195547 283.369146 
L 502.927543 282.973562 
L 503.659538 282.577977 
L 504.391533 282.182392 
L 505.123528 281.786808 
L 505.855524 281.391223 
L 506.587519 280.995638 
L 507.319514 280.600054 
L 508.05151 280.204469 
L 508.783505 279.808884 
L 509.5155 279.4133 
L 510.247495 279.017715 
L 510.979491 278.62213 
L 511.711486 278.226545 
L 512.443481 277.830961 
L 513.175477 277.435376 
L 513.907472 277.039791 
L 514.639467 276.644207 
L 515.371462 276.248622 
L 516.103458 275.853037 
L 516.835453 275.457453 
" clip-path="url(#p9be6c6ff9a)" style="fill: none; stroke: #ee99aa; stroke-width: 3; stroke-linecap: square"/>
   </g>
   <g id="line2d_28">
    <path d="M 444.037314 314.731399 
L 444.769309 314.337174 
L 445.501305 313.942949 
L 446.2333 313.548724 
L 446.965295 313.154499 
L 447.697291 312.760273 
L 448.429286 312.366048 
L 449.161281 311.971823 
L 449.893276 311.577598 
L 450.625272 311.183373 
L 451.357267 310.789148 
L 452.089262 310.394922 
L 452.821257 310.000697 
L 453.553253 309.606472 
L 454.285248 309.212247 
L 455.017243 308.818022 
L 455.749239 308.423797 
L 456.481234 308.029572 
L 457.213229 307.635346 
L 457.945224 307.241121 
L 458.67722 306.846896 
L 459.409215 306.452671 
L 460.14121 306.058446 
L 460.873206 305.664221 
L 461.605201 305.269995 
L 462.337196 304.87577 
L 463.069191 304.481545 
L 463.801187 304.08732 
L 464.533182 303.693095 
L 465.265177 303.29887 
L 465.997172 302.904645 
L 466.729168 302.510419 
L 467.461163 302.116194 
L 468.193158 301.721969 
L 468.925154 301.327744 
L 469.657149 300.933519 
L 470.389144 300.539294 
L 471.121139 300.145068 
L 471.853135 299.750843 
L 472.58513 299.356618 
L 473.317125 298.962393 
L 474.049121 298.568168 
L 474.781116 298.173943 
L 475.513111 297.779717 
L 476.245106 297.385492 
L 476.977102 296.991267 
L 477.709097 296.597042 
L 478.441092 296.202817 
L 479.173087 295.808592 
L 479.905083 295.414367 
L 480.637078 295.020141 
L 481.369073 294.625916 
L 482.101069 294.231691 
L 482.833064 293.837466 
L 483.565059 293.443241 
L 484.297054 293.049016 
L 485.02905 292.65479 
L 485.761045 292.260565 
L 486.49304 291.86634 
L 487.225036 291.472115 
L 487.957031 291.07789 
L 488.689026 290.683665 
L 489.421021 290.28944 
L 490.153017 289.895214 
L 490.885012 289.500989 
L 491.617007 289.106764 
L 492.349002 288.712539 
L 493.080998 288.318314 
L 493.812993 287.924089 
L 494.544988 287.529863 
L 495.276984 287.135638 
L 496.008979 286.741413 
L 496.740974 286.347188 
L 497.472969 285.952963 
L 498.204965 285.558738 
L 498.93696 285.164512 
L 499.668955 284.770287 
L 500.400951 284.376062 
L 501.132946 283.981837 
L 501.864941 283.587612 
L 502.596936 283.193387 
L 503.328932 282.799162 
L 504.060927 282.404936 
L 504.792922 282.010711 
L 505.524917 281.616486 
L 506.256913 281.222261 
L 506.988908 280.828036 
L 507.720903 280.433811 
L 508.452899 280.039585 
L 509.184894 279.64536 
L 509.916889 279.251135 
L 510.648884 278.85691 
L 511.38088 278.462685 
L 512.112875 278.06846 
L 512.84487 277.674235 
L 513.576866 277.280009 
L 514.308861 276.885784 
L 515.040856 276.491559 
L 515.772851 276.097334 
L 516.504847 275.703109 
" clip-path="url(#p9be6c6ff9a)" style="fill: none; stroke: #997700; stroke-width: 3; stroke-linecap: square"/>
   </g>
   <g id="patch_3">
    <path d="M 32.937443 339.84 
L 32.937443 7.2 
" style="fill: none; stroke: #000000; stroke-width: 0.8; stroke-linejoin: miter; stroke-linecap: square"/>
   </g>
   <g id="patch_4">
    <path d="M 590.937443 339.84 
L 590.937443 7.2 
" style="fill: none; stroke: #000000; stroke-width: 0.8; stroke-linejoin: miter; stroke-linecap: square"/>
   </g>
   <g id="patch_5">
    <path d="M 32.937443 339.84 
L 590.937443 339.84 
" style="fill: none; stroke: #000000; stroke-width: 0.8; stroke-linejoin: miter; stroke-linecap: square"/>
   </g>
   <g id="patch_6">
    <path d="M 32.937443 7.2 
L 590.937443 7.2 
" style="fill: none; stroke: #000000; stroke-width: 0.8; stroke-linejoin: miter; stroke-linecap: square"/>
   </g>
   <g id="legend_1">
    <g id="line2d_29">
     <path d="M 435.49356 33.126022 
L 455.49356 33.126022 
L 475.49356 33.126022 
" style="fill: none; stroke-dasharray: 11.1,4.8; stroke-dashoffset: 0; stroke: #6699cc; stroke-width: 3"/>
    </g>
    <g id="text_12">
     <!-- f(x) -->
     <g transform="translate(491.49356 40.126022)scale(0.2 -0.2)">
      <defs>
       <path id="CMSS17-66" d="M 1075 2380 
L 1722 2380 
L 1722 2752 
L 1062 2752 
L 1062 3563 
C 1062 4013 1408 4089 1606 4089 
C 1670 4089 1850 4089 2080 4007 
L 2080 4428 
C 1933 4460 1754 4480 1613 4480 
C 1018 4480 602 3994 602 3366 
L 602 2752 
L 160 2752 
L 160 2380 
L 602 2380 
L 602 0 
L 1075 0 
L 1075 2380 
z
" transform="scale(0.015625)"/>
       <path id="CMSS17-28" d="M 1613 4800 
C 1267 4447 474 3627 474 1603 
C 474 -428 1267 -1242 1613 -1600 
L 2003 -1600 
C 1216 -781 960 366 960 1596 
C 960 2820 1203 3973 2003 4800 
L 1613 4800 
z
" transform="scale(0.015625)"/>
       <path id="CMSS17-78" d="M 1587 1420 
L 2656 2752 
L 2099 2752 
L 1363 1785 
L 602 2752 
L 32 2752 
L 1139 1420 
L 0 0 
L 563 0 
L 1363 1126 
L 2195 0 
L 2758 0 
L 1587 1420 
z
" transform="scale(0.015625)"/>
       <path id="CMSS17-29" d="M 723 -1600 
C 1069 -1248 1862 -428 1862 1596 
C 1862 3627 1069 4440 723 4800 
L 333 4800 
C 1120 3979 1376 2833 1376 1603 
C 1376 379 1133 -774 333 -1600 
L 723 -1600 
z
" transform="scale(0.015625)"/>
      </defs>
      <use xlink:href="#CMSS17-66" transform="scale(0.996264)"/>
      <use xlink:href="#CMSS17-28" transform="translate(28.626659 0)scale(0.996264)"/>
      <use xlink:href="#CMSS17-78" transform="translate(65.060573 0)scale(0.996264)"/>
      <use xlink:href="#CMSS17-29" transform="translate(108.060715 0)scale(0.996264)"/>
     </g>
    </g>
    <g id="line2d_30">
     <path d="M 435.49356 62.090666 
L 455.49356 62.090666 
L 475.49356 62.090666 
" style="fill: none; stroke: #004488; stroke-width: 3; stroke-linecap: square"/>
    </g>
    <g id="text_13">
     <!-- Iteration 0 -->
     <g transform="translate(491.49356 69.090666)scale(0.2 -0.2)">
      <defs>
       <path id="CMSS17-49" d="M 1094 4416 
L 557 4416 
L 557 0 
L 1094 0 
L 1094 4416 
z
" transform="scale(0.015625)"/>
       <path id="CMSS17-74" d="M 1069 2380 
L 1901 2380 
L 1901 2752 
L 1069 2752 
L 1069 3520 
L 614 3520 
L 614 2752 
L 109 2752 
L 109 2380 
L 602 2380 
L 602 751 
C 602 384 685 -64 1107 -64 
C 1427 -64 1722 25 2003 172 
L 1901 551 
C 1747 416 1562 339 1363 339 
C 1082 339 1069 699 1069 860 
L 1069 2380 
z
" transform="scale(0.015625)"/>
       <path id="CMSS17-65" d="M 2502 1375 
C 2502 1587 2490 2001 2285 2347 
C 2061 2713 1696 2816 1421 2816 
C 755 2816 192 2184 192 1363 
C 192 579 774 -64 1510 -64 
C 1798 -64 2150 19 2470 249 
C 2470 275 2458 414 2451 421 
C 2451 433 2432 629 2432 655 
C 2125 408 1773 326 1517 326 
C 1107 326 666 667 646 1375 
L 2502 1375 
z
M 698 1728 
C 781 2086 1062 2425 1421 2425 
C 1517 2425 1965 2412 2080 1728 
L 698 1728 
z
" transform="scale(0.015625)"/>
       <path id="CMSS17-72" d="M 954 1369 
C 954 1974 1395 2379 1958 2392 
L 1958 2816 
C 1549 2809 1165 2604 934 2270 
L 934 2783 
L 480 2783 
L 480 0 
L 954 0 
L 954 1369 
z
" transform="scale(0.015625)"/>
       <path id="CMSS17-61" d="M 2406 1789 
C 2406 2399 1978 2816 1402 2816 
C 1120 2816 813 2764 461 2559 
L 499 2133 
C 659 2250 934 2438 1395 2438 
C 1722 2438 1920 2185 1920 1782 
L 1920 1536 
C 896 1504 256 1209 256 711 
C 256 452 416 -64 947 -64 
C 1043 -64 1562 -52 1933 224 
L 1933 -13 
L 2406 -13 
L 2406 1789 
z
M 1920 824 
C 1920 711 1920 559 1728 446 
C 1562 339 1350 326 1261 326 
C 941 326 723 503 723 723 
C 723 1165 1722 1209 1920 1216 
L 1920 824 
z
" transform="scale(0.015625)"/>
       <path id="CMSS17-69" d="M 979 4224 
L 442 4224 
L 442 3686 
L 979 3686 
L 979 4224 
z
M 947 2752 
L 474 2752 
L 474 0 
L 947 0 
L 947 2752 
z
" transform="scale(0.015625)"/>
       <path id="CMSS17-6f" d="M 2829 1356 
C 2829 2175 2221 2816 1504 2816 
C 768 2816 173 2156 173 1356 
C 173 544 787 -64 1498 -64 
C 2227 -64 2829 563 2829 1356 
z
M 1504 339 
C 1050 339 659 710 659 1407 
C 659 2150 1114 2425 1498 2425 
C 1914 2425 2342 2124 2342 1407 
C 2342 684 1926 339 1504 339 
z
" transform="scale(0.015625)"/>
       <path id="CMSS17-6e" d="M 2618 1878 
C 2618 2283 2522 2816 1798 2816 
C 1389 2816 1120 2604 941 2386 
L 941 2783 
L 474 2783 
L 474 0 
L 960 0 
L 960 1556 
C 960 1962 1114 2425 1549 2425 
C 2112 2425 2131 2045 2131 1826 
L 2131 0 
L 2618 0 
L 2618 1878 
z
" transform="scale(0.015625)"/>
      </defs>
      <use xlink:href="#CMSS17-49" transform="scale(0.996264)"/>
      <use xlink:href="#CMSS17-74" transform="translate(25.783926 0)scale(0.996264)"/>
      <use xlink:href="#CMSS17-65" transform="translate(59.615492 0)scale(0.996264)"/>
      <use xlink:href="#CMSS17-72" transform="translate(101.254314 0)scale(0.996264)"/>
      <use xlink:href="#CMSS17-61" transform="translate(133.164087 0)scale(0.996264)"/>
      <use xlink:href="#CMSS17-74" transform="translate(178.086007 0)scale(0.996264)"/>
      <use xlink:href="#CMSS17-69" transform="translate(211.917574 0)scale(0.996264)"/>
      <use xlink:href="#CMSS17-6f" transform="translate(234.098297 0)scale(0.996264)"/>
      <use xlink:href="#CMSS17-6e" transform="translate(280.941921 0)scale(0.996264)"/>
      <use xlink:href="#CMSS17-30" transform="translate(360.375977 0)scale(0.996264)"/>
     </g>
    </g>
    <g id="line2d_31">
     <path d="M 435.49356 89.966299 
L 455.49356 89.966299 
L 475.49356 89.966299 
" style="fill: none; stroke: #eecc66; stroke-width: 3; stroke-linecap: square"/>
    </g>
    <g id="text_14">
     <!-- Iteration 1 -->
     <g transform="translate(491.49356 96.966299)scale(0.2 -0.2)">
      <defs>
       <path id="CMSS17-31" d="M 1818 4288 
L 1696 4288 
C 1350 3949 947 3902 538 3891 
L 538 3520 
C 723 3526 1024 3539 1325 3673 
L 1325 371 
L 570 371 
L 570 0 
L 2573 0 
L 2573 371 
L 1818 371 
L 1818 4288 
z
" transform="scale(0.015625)"/>
      </defs>
      <use xlink:href="#CMSS17-49" transform="scale(0.996264)"/>
      <use xlink:href="#CMSS17-74" transform="translate(25.783926 0)scale(0.996264)"/>
      <use xlink:href="#CMSS17-65" transform="translate(59.615492 0)scale(0.996264)"/>
      <use xlink:href="#CMSS17-72" transform="translate(101.254314 0)scale(0.996264)"/>
      <use xlink:href="#CMSS17-61" transform="translate(133.164087 0)scale(0.996264)"/>
      <use xlink:href="#CMSS17-74" transform="translate(178.086007 0)scale(0.996264)"/>
      <use xlink:href="#CMSS17-69" transform="translate(211.917574 0)scale(0.996264)"/>
      <use xlink:href="#CMSS17-6f" transform="translate(234.098297 0)scale(0.996264)"/>
      <use xlink:href="#CMSS17-6e" transform="translate(280.941921 0)scale(0.996264)"/>
      <use xlink:href="#CMSS17-31" transform="translate(360.375977 0)scale(0.996264)"/>
     </g>
    </g>
    <g id="line2d_32">
     <path d="M 435.49356 117.841933 
L 455.49356 117.841933 
L 475.49356 117.841933 
" style="fill: none; stroke: #994455; stroke-width: 3; stroke-linecap: square"/>
    </g>
    <g id="text_15">
     <!-- Iteration 2 -->
     <g transform="translate(491.49356 124.841933)scale(0.2 -0.2)">
      <use xlink:href="#CMSS17-49" transform="scale(0.996264)"/>
      <use xlink:href="#CMSS17-74" transform="translate(25.783926 0)scale(0.996264)"/>
      <use xlink:href="#CMSS17-65" transform="translate(59.615492 0)scale(0.996264)"/>
      <use xlink:href="#CMSS17-72" transform="translate(101.254314 0)scale(0.996264)"/>
      <use xlink:href="#CMSS17-61" transform="translate(133.164087 0)scale(0.996264)"/>
      <use xlink:href="#CMSS17-74" transform="translate(178.086007 0)scale(0.996264)"/>
      <use xlink:href="#CMSS17-69" transform="translate(211.917574 0)scale(0.996264)"/>
      <use xlink:href="#CMSS17-6f" transform="translate(234.098297 0)scale(0.996264)"/>
      <use xlink:href="#CMSS17-6e" transform="translate(280.941921 0)scale(0.996264)"/>
      <use xlink:href="#CMSS17-32" transform="translate(360.375977 0)scale(0.996264)"/>
     </g>
    </g>
    <g id="line2d_33">
     <path d="M 435.49356 145.717567 
L 455.49356 145.717567 
L 475.49356 145.717567 
" style="fill: none; stroke: #ee99aa; stroke-width: 3; stroke-linecap: square"/>
    </g>
    <g id="text_16">
     <!-- Iteration 3 -->
     <g transform="translate(491.49356 152.717567)scale(0.2 -0.2)">
      <defs>
       <path id="CMSS17-33" d="M 1005 2060 
L 1440 2060 
C 2042 2060 2214 1532 2214 1164 
C 2214 662 1933 268 1472 268 
C 1114 268 608 449 320 926 
C 275 700 275 687 250 533 
C 550 89 1037 -128 1485 -128 
C 2214 -128 2752 481 2752 1158 
C 2752 1667 2400 2092 1920 2252 
C 2304 2463 2586 2860 2586 3321 
C 2586 3859 2093 4288 1491 4288 
C 941 4288 512 3948 333 3583 
C 378 3519 493 3334 550 3238 
C 691 3615 1056 3897 1485 3897 
C 1843 3897 2080 3660 2080 3321 
C 2080 2969 1856 2585 1478 2496 
C 1453 2496 1056 2457 1005 2451 
L 1005 2060 
z
" transform="scale(0.015625)"/>
      </defs>
      <use xlink:href="#CMSS17-49" transform="scale(0.996264)"/>
      <use xlink:href="#CMSS17-74" transform="translate(25.783926 0)scale(0.996264)"/>
      <use xlink:href="#CMSS17-65" transform="translate(59.615492 0)scale(0.996264)"/>
      <use xlink:href="#CMSS17-72" transform="translate(101.254314 0)scale(0.996264)"/>
      <use xlink:href="#CMSS17-61" transform="translate(133.164087 0)scale(0.996264)"/>
      <use xlink:href="#CMSS17-74" transform="translate(178.086007 0)scale(0.996264)"/>
      <use xlink:href="#CMSS17-69" transform="translate(211.917574 0)scale(0.996264)"/>
      <use xlink:href="#CMSS17-6f" transform="translate(234.098297 0)scale(0.996264)"/>
      <use xlink:href="#CMSS17-6e" transform="translate(280.941921 0)scale(0.996264)"/>
      <use xlink:href="#CMSS17-33" transform="translate(360.375977 0)scale(0.996264)"/>
     </g>
    </g>
    <g id="line2d_34">
     <path d="M 435.49356 173.5932 
L 455.49356 173.5932 
L 475.49356 173.5932 
" style="fill: none; stroke: #997700; stroke-width: 3; stroke-linecap: square"/>
    </g>
    <g id="text_17">
     <!-- Iteration 4 -->
     <g transform="translate(491.49356 180.5932)scale(0.2 -0.2)">
      <use xlink:href="#CMSS17-49" transform="scale(0.996264)"/>
      <use xlink:href="#CMSS17-74" transform="translate(25.783926 0)scale(0.996264)"/>
      <use xlink:href="#CMSS17-65" transform="translate(59.615492 0)scale(0.996264)"/>
      <use xlink:href="#CMSS17-72" transform="translate(101.254314 0)scale(0.996264)"/>
      <use xlink:href="#CMSS17-61" transform="translate(133.164087 0)scale(0.996264)"/>
      <use xlink:href="#CMSS17-74" transform="translate(178.086007 0)scale(0.996264)"/>
      <use xlink:href="#CMSS17-69" transform="translate(211.917574 0)scale(0.996264)"/>
      <use xlink:href="#CMSS17-6f" transform="translate(234.098297 0)scale(0.996264)"/>
      <use xlink:href="#CMSS17-6e" transform="translate(280.941921 0)scale(0.996264)"/>
      <use xlink:href="#CMSS17-34" transform="translate(360.375977 0)scale(0.996264)"/>
     </g>
    </g>
   </g>
  </g>
 </g>
 <defs>
  <clipPath id="p9be6c6ff9a">
   <rect x="32.937443" y="7.2" width="558" height="332.64"/>
  </clipPath>
 </defs>
</svg>
