<?xml version="1.0" encoding="UTF-8" standalone="no"?><!DOCTYPE svg PUBLIC "-//W3C//DTD SVG 1.1//EN" "http://www.w3.org/Graphics/SVG/1.1/DTD/svg11.dtd"><svg width="100%" height="100%" viewBox="0 0 4662 2141" version="1.1" xmlns="http://www.w3.org/2000/svg" xmlns:xlink="http://www.w3.org/1999/xlink" xml:space="preserve" xmlns:serif="http://www.serif.com/" style="fill-rule:evenodd;clip-rule:evenodd;stroke-linecap:round;stroke-linejoin:round;stroke-miterlimit:4.26829;"><g><path d="M542.128,1793.21l4113.62,0" style="fill:none;stroke:#000;stroke-width:12.5px;"/><path d="M4655.75,1793.21l0,-1786.96" style="fill:none;stroke:#000;stroke-width:12.5px;"/><path d="M4655.75,6.25l-4113.62,0" style="fill:none;stroke:#000;stroke-width:12.5px;"/><path d="M598.595,6.25l0,1786.96" style="fill:none;stroke:#000;stroke-width:12.5px;"/><path d="M542.128,1420.29l4113.62,-0" style="fill:none;stroke:#000;stroke-width:12.5px;stroke-dasharray:67.19,35.16,0,0;stroke-dashoffset:7.81;"/><path d="M542.128,275.05l4113.62,-0" style="fill:none;stroke:#000;stroke-width:12.5px;stroke-dasharray:67.19,35.16,0,0;stroke-dashoffset:7.81;"/><path d="M542.128,275.05l414.217,-0c613.212,571.379 2166.36,587.689 2733.66,660.243l0,484.995l965.738,-0" style="fill:none;stroke:#000;stroke-width:12.5px;"/><path d="M324.147,583.26l-32.625,-65.25l-32.625,65.25l65.25,0Z"/><path d="M291.522,570.21l-0,711.238" style="fill:none;stroke:#000;stroke-width:12.5px;"/><path d="M3139.73,1973.44l65.25,-32.625l-65.25,-32.625l-0,65.25Z"/><path d="M3152.78,1940.81l-1103.42,0" style="fill:none;stroke:#000;stroke-width:12.5px;"/><path d="M2219.29,2120.14l-0,-115.641l40.934,-0c11.122,-0 20.698,2.604 28.727,7.812c8.138,5.317 14.418,12.56 18.84,21.729c4.421,9.169 6.632,18.88 6.632,29.134c0,15.462 -4.557,28.402 -13.672,38.818c-9.114,10.417 -19.829,16.358 -32.145,17.822c-1.79,0.217 -4.476,0.326 -8.057,0.326l-41.259,-0Zm14.485,-9.359l23.845,0c13.889,0 24.712,-5.1 32.47,-15.299c6.565,-8.572 9.847,-19.287 9.847,-32.145c0,-14.106 -3.702,-25.893 -11.108,-35.36c-7.406,-9.467 -17.809,-14.201 -31.209,-14.201l-23.845,0l0,97.005Z" style="fill-rule:nonzero;"/><path d="M2337.64,2021.84l0,-14.893l14.974,0l0,14.893l-14.974,-0Zm1.139,98.307l0,-74.137l12.452,-0l-0,74.137l-12.452,-0Z" style="fill-rule:nonzero;"/><path d="M2371.12,2114.45l2.035,-11.312c0.217,0.109 0.935,0.529 2.156,1.262c1.221,0.732 2.143,1.261 2.767,1.587c0.624,0.325 1.628,0.827 3.011,1.505c1.384,0.679 2.659,1.207 3.825,1.587c1.166,0.38 2.523,0.787 4.069,1.221c1.546,0.434 3.187,0.746 4.923,0.936c1.737,0.19 3.527,0.285 5.372,0.285c5.533,-0 9.508,-1.18 11.922,-3.54c2.414,-2.36 3.621,-4.978 3.621,-7.854c0,-2.766 -1.003,-5.072 -3.011,-6.917c-2.007,-1.845 -4.123,-3.092 -6.348,-3.743c-1.085,-0.326 -3.553,-0.882 -7.405,-1.669c-3.852,-0.786 -6.7,-1.451 -8.545,-1.993c-4.557,-1.465 -8.586,-3.947 -12.085,-7.447c-3.499,-3.499 -5.249,-7.853 -5.249,-13.061c-0,-2.55 0.38,-4.964 1.139,-7.243c0.76,-2.279 2.062,-4.612 3.907,-6.999c1.844,-2.387 4.679,-4.272 8.504,-5.656c3.825,-1.383 8.396,-2.075 13.712,-2.075c7.976,0 16.087,1.709 24.333,5.127l-1.79,11.068c-0.109,-0.109 -0.746,-0.421 -1.913,-0.936c-1.166,-0.516 -1.831,-0.828 -1.994,-0.936c-0.162,-0.109 -0.773,-0.38 -1.831,-0.814c-1.058,-0.434 -1.79,-0.719 -2.197,-0.854c-0.407,-0.136 -1.099,-0.394 -2.075,-0.773c-0.977,-0.38 -1.75,-0.597 -2.319,-0.651c-0.57,-0.055 -1.384,-0.218 -2.442,-0.489c-1.058,-0.271 -1.994,-0.434 -2.807,-0.488c-0.814,-0.054 -1.777,-0.109 -2.889,-0.163c-1.113,-0.054 -2.293,-0.081 -3.54,-0.081c-5.1,-0 -8.708,1.031 -10.824,3.092c-2.116,2.062 -3.174,4.422 -3.174,7.08c0,3.69 1.479,6.334 4.435,7.935c2.957,1.6 7.094,2.862 12.411,3.784c5.317,0.922 9.087,1.899 11.312,2.93c4.014,1.79 7.432,4.462 10.254,8.016c2.821,3.553 4.231,7.826 4.231,12.817c0,2.55 -0.379,5.046 -1.139,7.487c-0.76,2.441 -2.062,4.883 -3.906,7.324c-1.845,2.442 -4.68,4.422 -8.504,5.941c-3.825,1.519 -8.369,2.279 -13.632,2.279c-9.765,-0.055 -19.205,-2.577 -28.32,-7.569Z" style="fill-rule:nonzero;"/><path d="M2435.03,2055.77l0,-9.765l14.323,-0l0,-20.997l11.637,0l0,20.997l23.519,-0l0,9.765l-23.519,0l0,41.016c0,9.657 3.012,14.486 9.034,14.486c4.665,-0 9.548,-1.818 14.648,-5.453l2.686,9.847c-7.867,4.232 -16.086,6.348 -24.659,6.348c-9.114,-0 -13.671,-7.135 -13.671,-21.403l-0,-44.841l-13.998,0Z" style="fill-rule:nonzero;"/><path d="M2501.05,2101.34c0,-4.123 1.56,-7.717 4.68,-10.783c3.119,-3.065 7.202,-5.344 12.247,-6.836c5.046,-1.492 9.983,-2.604 14.812,-3.336c4.828,-0.733 9.684,-1.099 14.567,-1.099l-0,-5.615c-0.217,-7.107 -1.655,-12.234 -4.314,-15.381c-2.767,-3.309 -6.266,-4.964 -10.498,-4.964c-8.572,-0 -16.9,2.821 -24.983,8.463l-0.977,-11.149c8.355,-4.883 17.063,-7.324 26.123,-7.324c7.65,0 14.065,2.523 19.247,7.568c5.181,5.046 7.988,11.177 8.422,18.392l0,50.863l-12.614,-0l0,-5.859c-0.434,0.434 -1.464,1.152 -3.092,2.156c-1.628,1.004 -4.774,2.184 -9.44,3.54c-4.666,1.357 -9.711,2.035 -15.137,2.035c-6.347,-0 -11.108,-2.252 -14.282,-6.755c-3.174,-4.503 -4.761,-9.142 -4.761,-13.916Zm12.207,-0.163c0,2.984 1.465,5.48 4.395,7.487c2.929,2.008 6.619,3.011 11.068,3.011c4.774,0 9.073,-1.003 12.898,-3.011c3.825,-2.007 5.738,-5.398 5.738,-10.172l-0,-10.498c-3.418,-0 -6.904,0.217 -10.458,0.651c-3.553,0.434 -7.215,1.098 -10.986,1.994c-3.771,0.895 -6.822,2.265 -9.155,4.109c-2.333,1.845 -3.5,3.988 -3.5,6.429Z" style="fill-rule:nonzero;"/><path d="M2588.64,2120.14l0,-75.033l12.126,0l-0,11.719c6.456,-8.355 14.567,-12.532 24.332,-12.532c4.124,-0 7.664,0.61 10.62,1.831c2.957,1.22 5.209,2.726 6.755,4.516c1.546,1.791 2.74,4.042 3.581,6.755c0.841,2.712 1.37,5.127 1.587,7.243c0.217,2.116 0.325,4.611 0.325,7.487l0,48.014l-13.021,-0l0,-46.794c0,-1.899 -0.027,-3.404 -0.081,-4.516c-0.054,-1.112 -0.38,-2.699 -0.977,-4.761c-0.596,-2.062 -1.424,-3.703 -2.482,-4.924c-1.058,-1.22 -2.672,-2.305 -4.842,-3.255c-2.17,-0.949 -4.828,-1.424 -7.975,-1.424c-5.914,0 -10.213,2.496 -12.899,7.487c-2.685,4.991 -4.028,11.041 -4.028,18.148l-0,40.039l-13.021,-0Z" style="fill-rule:nonzero;"/><path d="M2668.83,2082.95c0,-10.308 3.323,-19.49 9.969,-27.547c6.646,-8.057 15.53,-12.085 26.652,-12.085c5.209,0 9.535,0.502 12.98,1.506c3.446,1.003 7.745,2.943 12.899,5.818l-2.034,10.987c-5.426,-3.418 -9.576,-5.534 -12.451,-6.348c-3.201,-0.868 -7.053,-1.302 -11.556,-1.302c-7.542,-0 -13.347,2.862 -17.416,8.585c-4.069,5.724 -6.103,12.519 -6.103,20.386c-0,8.247 2.17,15.028 6.51,20.345c4.34,5.317 9.956,7.976 16.846,7.976c8.68,-0 17.415,-2.984 26.204,-8.952l0.814,11.149c-8.789,5.642 -17.849,8.49 -27.181,8.545c-10.2,-0 -18.772,-3.812 -25.716,-11.434c-6.945,-7.623 -10.417,-16.832 -10.417,-27.629Z" style="fill-rule:nonzero;"/><path d="M2744.21,2082.46c-0,-11.014 3.35,-20.291 10.05,-27.832c6.701,-7.541 14.554,-11.312 23.56,-11.312c3.309,0 6.47,0.529 9.481,1.587c3.011,1.058 6.049,2.808 9.114,5.249c3.066,2.441 5.602,6.103 7.609,10.986c2.008,4.883 3.174,10.715 3.5,17.497l-0,4.801l-51.677,0c0.326,8.356 2.876,15.151 7.65,20.386c4.774,5.236 10.444,7.853 17.009,7.853c8.463,0 16.9,-3.065 25.309,-9.196l1.058,10.987c-8.464,5.642 -17.253,8.49 -26.367,8.545c-10.58,-0 -19.274,-3.92 -26.083,-11.76c-6.809,-7.839 -10.213,-17.103 -10.213,-27.791Zm12.451,-8.138l41.341,-0c-0.651,-4.34 -1.844,-8.016 -3.58,-11.027c-1.737,-3.011 -3.69,-5.154 -5.86,-6.429c-2.17,-1.275 -4.109,-2.13 -5.818,-2.564c-1.709,-0.434 -3.351,-0.651 -4.924,-0.651c-5.642,0 -10.308,2.17 -13.997,6.511c-3.69,4.34 -6.077,9.06 -7.162,14.16Z" style="fill-rule:nonzero;"/><path d="M2830.1,2120.14l-0,-13.997l13.997,-0l0,11.637l-0.163,2.36l-6.835,20.833l-6.999,0l4.313,-20.833l-4.313,-0Z" style="fill-rule:nonzero;"/><path d="M2918.94,2120.14l32.308,-38.005l-0,-0.325l-31.331,-35.807l13.834,-0l23.031,27.506l0.163,0l22.135,-27.506l13.835,-0l-30.681,35.807l0,0.163l33.366,38.167l-13.834,-0l-24.984,-31.331l-24.007,31.331l-13.835,-0Z" style="fill-rule:nonzero;"/><g transform="matrix(1.27567e-15,-4.16667,4.16667,1.27567e-15,-3936.9,15065)"><g transform="matrix(40,0,0,40,3293.56,973.488)"><path d="M0.044,-0.047l0.015,-0.083c0.07,0.055 0.141,0.083 0.214,0.083c0.043,0 0.078,-0.013 0.105,-0.04c0.027,-0.027 0.041,-0.057 0.041,-0.092c-0,-0.026 -0.008,-0.05 -0.023,-0.072c-0.016,-0.021 -0.037,-0.037 -0.063,-0.048c-0.001,-0 -0.043,-0.012 -0.124,-0.033c-0.041,-0.011 -0.077,-0.033 -0.107,-0.065c-0.031,-0.033 -0.047,-0.074 -0.047,-0.122c0,-0.051 0.021,-0.097 0.063,-0.137c0.041,-0.04 0.096,-0.06 0.163,-0.06c0.063,0 0.124,0.016 0.183,0.048l-0.014,0.083c-0.028,-0.021 -0.054,-0.037 -0.078,-0.048c-0.024,-0.011 -0.055,-0.016 -0.092,-0.016c-0.044,0 -0.079,0.012 -0.105,0.035c-0.027,0.024 -0.04,0.052 -0.04,0.083c-0,0.024 0.007,0.045 0.022,0.064c0.016,0.019 0.035,0.034 0.058,0.043c0.009,0.004 0.034,0.011 0.073,0.02c0.039,0.009 0.065,0.017 0.077,0.022c0.037,0.015 0.069,0.04 0.095,0.074c0.026,0.033 0.039,0.073 0.039,0.119c0,0.057 -0.021,0.106 -0.063,0.148c-0.043,0.042 -0.097,0.063 -0.163,0.063c-0.08,-0 -0.156,-0.023 -0.229,-0.069Z" style="fill-rule:nonzero;"/></g><g transform="matrix(40,0,0,40,3316.13,973.488)"><path d="M0.044,-0.113c-0,-0.025 0.009,-0.046 0.028,-0.064c0.019,-0.019 0.043,-0.033 0.074,-0.042c0.03,-0.008 0.059,-0.015 0.088,-0.02c0.029,-0.004 0.058,-0.006 0.088,-0.006l-0,-0.034c-0.002,-0.042 -0.01,-0.073 -0.026,-0.092c-0.017,-0.02 -0.038,-0.03 -0.063,-0.03c-0.052,0 -0.101,0.017 -0.15,0.051l-0.006,-0.067c0.05,-0.029 0.103,-0.044 0.157,-0.044c0.046,0 0.084,0.015 0.115,0.045c0.031,0.031 0.048,0.068 0.051,0.111l-0,0.305l-0.076,0l0,-0.035c-0.002,0.002 -0.009,0.007 -0.018,0.013c-0.01,0.006 -0.029,0.013 -0.057,0.021c-0.028,0.008 -0.058,0.012 -0.091,0.012c-0.038,0 -0.066,-0.013 -0.085,-0.04c-0.02,-0.027 -0.029,-0.055 -0.029,-0.084Zm0.073,-0.001c0,0.018 0.009,0.033 0.027,0.045c0.017,0.012 0.039,0.018 0.066,0.018c0.029,0 0.054,-0.006 0.077,-0.018c0.023,-0.012 0.035,-0.032 0.035,-0.061l-0,-0.063c-0.021,0 -0.042,0.001 -0.063,0.004c-0.021,0.003 -0.043,0.007 -0.066,0.012c-0.023,0.005 -0.041,0.014 -0.055,0.025c-0.014,0.011 -0.021,0.024 -0.021,0.038Z" style="fill-rule:nonzero;"/></g><g transform="matrix(40,0,0,40,3335.7,973.488)"><path d="M0.018,-0.386l0,-0.059l0.086,0l0,-0.126l0.07,0l-0,0.126l0.141,0l-0,0.059l-0.141,-0l-0,0.246c-0,0.058 0.018,0.087 0.054,0.087c0.028,-0 0.057,-0.011 0.088,-0.033l0.016,0.059c-0.047,0.026 -0.096,0.038 -0.148,0.038c-0.055,0 -0.082,-0.043 -0.082,-0.128l0,-0.269l-0.084,-0Z" style="fill-rule:nonzero;"/></g><g transform="matrix(40,0,0,40,3350.51,973.488)"><path d="M0.08,-0.122l0,-0.323l0.078,0l0,0.335c0.001,0.024 0.006,0.04 0.017,0.05c0.01,0.01 0.031,0.015 0.063,0.015c0.034,0 0.062,-0.009 0.083,-0.028c0.021,-0.018 0.033,-0.039 0.036,-0.063c0.001,-0.007 0.001,-0.016 0.001,-0.029l-0,-0.28l0.078,0l0,0.445l-0.076,-0l-0,-0.048c-0.045,0.04 -0.104,0.059 -0.175,0.059c-0.02,0 -0.037,-0.003 -0.051,-0.009c-0.014,-0.007 -0.025,-0.014 -0.032,-0.022c-0.007,-0.008 -0.012,-0.019 -0.016,-0.034c-0.003,-0.014 -0.005,-0.025 -0.005,-0.034c-0.001,-0.008 -0.001,-0.019 -0.001,-0.034Z" style="fill-rule:nonzero;"/></g><g transform="matrix(40,0,0,40,3371.55,973.488)"><path d="M0.081,-0l0,-0.45l0.07,-0l-0,0.09c0.008,-0.013 0.018,-0.025 0.029,-0.036c0.011,-0.012 0.03,-0.025 0.057,-0.038c0.027,-0.013 0.057,-0.02 0.089,-0.021l0,0.067c-0.017,0 -0.034,0.004 -0.052,0.009c-0.017,0.006 -0.035,0.015 -0.055,0.027c-0.019,0.013 -0.034,0.032 -0.046,0.057c-0.011,0.025 -0.017,0.055 -0.017,0.089l-0,0.206l-0.075,-0Z" style="fill-rule:nonzero;"/></g><g transform="matrix(40,0,0,40,3385.6,973.488)"><path d="M0.044,-0.113c-0,-0.025 0.009,-0.046 0.028,-0.064c0.019,-0.019 0.043,-0.033 0.074,-0.042c0.03,-0.008 0.059,-0.015 0.088,-0.02c0.029,-0.004 0.058,-0.006 0.088,-0.006l-0,-0.034c-0.002,-0.042 -0.01,-0.073 -0.026,-0.092c-0.017,-0.02 -0.038,-0.03 -0.063,-0.03c-0.052,0 -0.101,0.017 -0.15,0.051l-0.006,-0.067c0.05,-0.029 0.103,-0.044 0.157,-0.044c0.046,0 0.084,0.015 0.115,0.045c0.031,0.031 0.048,0.068 0.051,0.111l-0,0.305l-0.076,0l0,-0.035c-0.002,0.002 -0.009,0.007 -0.018,0.013c-0.01,0.006 -0.029,0.013 -0.057,0.021c-0.028,0.008 -0.058,0.012 -0.091,0.012c-0.038,0 -0.066,-0.013 -0.085,-0.04c-0.02,-0.027 -0.029,-0.055 -0.029,-0.084Zm0.073,-0.001c0,0.018 0.009,0.033 0.027,0.045c0.017,0.012 0.039,0.018 0.066,0.018c0.029,0 0.054,-0.006 0.077,-0.018c0.023,-0.012 0.035,-0.032 0.035,-0.061l-0,-0.063c-0.021,0 -0.042,0.001 -0.063,0.004c-0.021,0.003 -0.043,0.007 -0.066,0.012c-0.023,0.005 -0.041,0.014 -0.055,0.025c-0.014,0.011 -0.021,0.024 -0.021,0.038Z" style="fill-rule:nonzero;"/></g><g transform="matrix(40,0,0,40,3405.18,973.488)"><path d="M0.018,-0.386l0,-0.059l0.086,0l0,-0.126l0.07,0l-0,0.126l0.141,0l-0,0.059l-0.141,-0l-0,0.246c-0,0.058 0.018,0.087 0.054,0.087c0.028,-0 0.057,-0.011 0.088,-0.033l0.016,0.059c-0.047,0.026 -0.096,0.038 -0.148,0.038c-0.055,0 -0.082,-0.043 -0.082,-0.128l0,-0.269l-0.084,-0Z" style="fill-rule:nonzero;"/></g><g transform="matrix(40,0,0,40,3419.99,973.488)"><path d="M0.074,-0.59l0,-0.089l0.09,-0l0,0.089l-0.09,0Zm0.007,0.59l0,-0.445l0.075,0l-0,0.445l-0.075,-0Z" style="fill-rule:nonzero;"/></g><g transform="matrix(40,0,0,40,3429.92,973.488)"><path d="M0.03,-0.221c-0,-0.068 0.021,-0.124 0.064,-0.171c0.044,-0.046 0.095,-0.069 0.155,-0.069c0.063,0 0.115,0.024 0.157,0.073c0.042,0.048 0.063,0.104 0.063,0.168c0,0.066 -0.022,0.121 -0.066,0.165c-0.044,0.044 -0.095,0.066 -0.154,0.066c-0.059,0 -0.11,-0.022 -0.154,-0.066c-0.043,-0.045 -0.065,-0.1 -0.065,-0.166Zm0.078,-0.01c-0,0.059 0.014,0.103 0.042,0.133c0.029,0.03 0.062,0.045 0.099,0.045c0.037,-0 0.07,-0.015 0.099,-0.046c0.028,-0.03 0.042,-0.074 0.042,-0.132c0,-0.056 -0.014,-0.098 -0.042,-0.126c-0.029,-0.028 -0.062,-0.042 -0.099,-0.042c-0.037,0 -0.069,0.014 -0.098,0.042c-0.029,0.028 -0.043,0.07 -0.043,0.126Z" style="fill-rule:nonzero;"/></g><g transform="matrix(40,0,0,40,3450.3,973.488)"><path d="M0.08,-0l0,-0.45l0.073,-0l-0,0.07c0.039,-0.05 0.087,-0.075 0.146,-0.075c0.025,-0 0.046,0.004 0.064,0.011c0.017,0.007 0.031,0.016 0.04,0.027c0.009,0.011 0.017,0.024 0.022,0.041c0.005,0.016 0.008,0.03 0.009,0.043c0.001,0.013 0.002,0.028 0.002,0.045l0,0.288l-0.078,-0l-0,-0.281c-0,-0.011 -0,-0.02 -0.001,-0.027c0,-0.007 -0.002,-0.016 -0.005,-0.028c-0.004,-0.013 -0.009,-0.023 -0.015,-0.03c-0.007,-0.007 -0.016,-0.014 -0.029,-0.019c-0.013,-0.006 -0.029,-0.009 -0.048,-0.009c-0.036,-0 -0.062,0.015 -0.078,0.045c-0.016,0.03 -0.024,0.066 -0.024,0.109l0,0.24l-0.078,0Z" style="fill-rule:nonzero;"/></g><g transform="matrix(40,0,0,40,3471.34,973.488)"><path d="M0.096,-0l0,-0.084l0.084,0l0,0.07l-0.001,0.014l-0.041,0.125l-0.042,0l0.026,-0.125l-0.026,-0Z" style="fill-rule:nonzero;"/></g><g transform="matrix(40,0,0,40,3496.51,973.488)"><path d="M0.044,-0.047l0.015,-0.083c0.07,0.055 0.141,0.083 0.214,0.083c0.043,0 0.078,-0.013 0.105,-0.04c0.027,-0.027 0.041,-0.057 0.041,-0.092c-0,-0.026 -0.008,-0.05 -0.023,-0.072c-0.016,-0.021 -0.037,-0.037 -0.063,-0.048c-0.001,-0 -0.043,-0.012 -0.124,-0.033c-0.041,-0.011 -0.077,-0.033 -0.107,-0.065c-0.031,-0.033 -0.047,-0.074 -0.047,-0.122c0,-0.051 0.021,-0.097 0.063,-0.137c0.041,-0.04 0.096,-0.06 0.163,-0.06c0.063,0 0.124,0.016 0.183,0.048l-0.014,0.083c-0.028,-0.021 -0.054,-0.037 -0.078,-0.048c-0.024,-0.011 -0.055,-0.016 -0.092,-0.016c-0.044,0 -0.079,0.012 -0.105,0.035c-0.027,0.024 -0.04,0.052 -0.04,0.083c-0,0.024 0.007,0.045 0.022,0.064c0.016,0.019 0.035,0.034 0.058,0.043c0.009,0.004 0.034,0.011 0.073,0.02c0.039,0.009 0.065,0.017 0.077,0.022c0.037,0.015 0.069,0.04 0.095,0.074c0.026,0.033 0.039,0.073 0.039,0.119c0,0.057 -0.021,0.106 -0.063,0.148c-0.043,0.042 -0.097,0.063 -0.163,0.063c-0.08,-0 -0.156,-0.023 -0.229,-0.069Z" style="fill-rule:nonzero;"/></g><g transform="matrix(23.32,0,0,23.32,3519.07,978.978)"><path d="M0.014,-0.445l0.075,0c0.065,0.206 0.101,0.337 0.108,0.395c0.002,-0.041 0.037,-0.173 0.106,-0.395l0.071,0l0.073,0.244c0.023,0.084 0.036,0.134 0.038,0.151c0.003,-0.032 0.04,-0.164 0.111,-0.395l0.073,0l-0.138,0.445l-0.087,0c-0.045,-0.15 -0.073,-0.244 -0.084,-0.282c-0.01,-0.039 -0.018,-0.076 -0.023,-0.112c-0.001,0.034 -0.037,0.165 -0.106,0.394l-0.079,0l-0.138,-0.445Z" style="fill-rule:nonzero;"/></g></g><g transform="matrix(4.16667,2.04108e-15,-2.04108e-15,4.16667,-13783.1,-2588.32)"><g transform="matrix(40,0,0,40,3389.83,973.488)"><path d="M0.044,-0.047l0.015,-0.083c0.07,0.055 0.141,0.083 0.214,0.083c0.043,0 0.078,-0.013 0.105,-0.04c0.027,-0.027 0.041,-0.057 0.041,-0.092c-0,-0.026 -0.008,-0.05 -0.023,-0.072c-0.016,-0.021 -0.037,-0.037 -0.063,-0.048c-0.001,-0 -0.043,-0.012 -0.124,-0.033c-0.041,-0.011 -0.077,-0.033 -0.107,-0.065c-0.031,-0.033 -0.047,-0.074 -0.047,-0.122c0,-0.051 0.021,-0.097 0.063,-0.137c0.041,-0.04 0.096,-0.06 0.163,-0.06c0.063,0 0.124,0.016 0.183,0.048l-0.014,0.083c-0.028,-0.021 -0.054,-0.037 -0.078,-0.048c-0.024,-0.011 -0.055,-0.016 -0.092,-0.016c-0.044,0 -0.079,0.012 -0.105,0.035c-0.027,0.024 -0.04,0.052 -0.04,0.083c-0,0.024 0.007,0.045 0.022,0.064c0.016,0.019 0.035,0.034 0.058,0.043c0.009,0.004 0.034,0.011 0.073,0.02c0.039,0.009 0.065,0.017 0.077,0.022c0.037,0.015 0.069,0.04 0.095,0.074c0.026,0.033 0.039,0.073 0.039,0.119c0,0.057 -0.021,0.106 -0.063,0.148c-0.043,0.042 -0.097,0.063 -0.163,0.063c-0.08,-0 -0.156,-0.023 -0.229,-0.069Z" style="fill-rule:nonzero;"/></g><g transform="matrix(1.0025,0,0,1,-8.53098,0)"><g transform="matrix(23.32,0,0,23.32,3412.39,979.012)"><path d="M0.014,-0.445l0.075,0c0.065,0.206 0.101,0.337 0.108,0.395c0.002,-0.041 0.037,-0.173 0.106,-0.395l0.071,0l0.073,0.244c0.023,0.084 0.036,0.134 0.038,0.151c0.003,-0.032 0.04,-0.164 0.111,-0.395l0.073,0l-0.138,0.445l-0.087,0c-0.045,-0.15 -0.073,-0.244 -0.084,-0.282c-0.01,-0.039 -0.018,-0.076 -0.023,-0.112c-0.001,0.034 -0.037,0.165 -0.106,0.394l-0.079,0l-0.138,-0.445Z" style="fill-rule:nonzero;"/></g><g transform="matrix(23.32,0,0,23.32,3428.31,979.012)"><path d="M0.035,-0.223c0,-0.062 0.02,-0.117 0.06,-0.165c0.04,-0.049 0.093,-0.073 0.16,-0.073c0.031,0 0.057,0.003 0.078,0.009c0.02,0.006 0.046,0.018 0.077,0.035l-0.012,0.066c-0.033,-0.021 -0.058,-0.033 -0.075,-0.038c-0.019,-0.005 -0.042,-0.008 -0.069,-0.008c-0.045,0 -0.08,0.017 -0.105,0.052c-0.024,0.034 -0.036,0.075 -0.036,0.122c-0,0.049 0.013,0.09 0.039,0.122c0.026,0.032 0.06,0.048 0.101,0.048c0.052,-0 0.104,-0.018 0.157,-0.054l0.005,0.067c-0.053,0.034 -0.107,0.051 -0.163,0.051c-0.061,0 -0.113,-0.023 -0.154,-0.068c-0.042,-0.046 -0.063,-0.101 -0.063,-0.166Z" style="fill-rule:nonzero;"/></g></g></g><g transform="matrix(4.16667,2.04108e-15,-2.04108e-15,4.16667,-13842.2,-3732.94)"><g transform="matrix(40,0,0,40,3375.96,973.488)"><path d="M0.09,-0.554l-0,-0.058c0.08,0 0.144,-0.022 0.191,-0.066l0.019,-0l-0,0.619l0.125,-0l-0,0.059l-0.33,0l0,-0.059l0.125,-0l0,-0.518c-0.039,0.015 -0.083,0.023 -0.13,0.023Z" style="fill-rule:nonzero;"/></g><g transform="matrix(40,0,0,40,3396.33,973.488)"><rect x="0.01" y="-0.252" width="0.266" height="0.059" style="fill-rule:nonzero;"/></g><g transform="matrix(40,0,0,40,3410.01,973.488)"><path d="M0.044,-0.047l0.015,-0.083c0.07,0.055 0.141,0.083 0.214,0.083c0.043,0 0.078,-0.013 0.105,-0.04c0.027,-0.027 0.041,-0.057 0.041,-0.092c-0,-0.026 -0.008,-0.05 -0.023,-0.072c-0.016,-0.021 -0.037,-0.037 -0.063,-0.048c-0.001,-0 -0.043,-0.012 -0.124,-0.033c-0.041,-0.011 -0.077,-0.033 -0.107,-0.065c-0.031,-0.033 -0.047,-0.074 -0.047,-0.122c0,-0.051 0.021,-0.097 0.063,-0.137c0.041,-0.04 0.096,-0.06 0.163,-0.06c0.063,0 0.124,0.016 0.183,0.048l-0.014,0.083c-0.028,-0.021 -0.054,-0.037 -0.078,-0.048c-0.024,-0.011 -0.055,-0.016 -0.092,-0.016c-0.044,0 -0.079,0.012 -0.105,0.035c-0.027,0.024 -0.04,0.052 -0.04,0.083c-0,0.024 0.007,0.045 0.022,0.064c0.016,0.019 0.035,0.034 0.058,0.043c0.009,0.004 0.034,0.011 0.073,0.02c0.039,0.009 0.065,0.017 0.077,0.022c0.037,0.015 0.069,0.04 0.095,0.074c0.026,0.033 0.039,0.073 0.039,0.119c0,0.057 -0.021,0.106 -0.063,0.148c-0.043,0.042 -0.097,0.063 -0.163,0.063c-0.08,-0 -0.156,-0.023 -0.229,-0.069Z" style="fill-rule:nonzero;"/></g><g transform="matrix(23.32,0,0,23.32,3432.58,978.978)"><path d="M0.08,-0l0,-0.45l0.073,-0l-0,0.07c0.039,-0.05 0.087,-0.075 0.146,-0.075c0.025,-0 0.046,0.004 0.064,0.011c0.017,0.007 0.031,0.016 0.04,0.027c0.009,0.011 0.017,0.024 0.022,0.041c0.005,0.016 0.008,0.03 0.009,0.043c0.001,0.013 0.002,0.028 0.002,0.045l0,0.288l-0.078,-0l-0,-0.281c-0,-0.011 -0,-0.02 -0.001,-0.027c0,-0.007 -0.002,-0.016 -0.005,-0.028c-0.004,-0.013 -0.009,-0.023 -0.015,-0.03c-0.007,-0.007 -0.016,-0.014 -0.029,-0.019c-0.013,-0.006 -0.029,-0.009 -0.048,-0.009c-0.036,-0 -0.062,0.015 -0.078,0.045c-0.016,0.03 -0.024,0.066 -0.024,0.109l0,0.24l-0.078,0Z" style="fill-rule:nonzero;"/></g><g transform="matrix(23.32,0,0,23.32,3444.62,978.978)"><path d="M0.081,-0l0,-0.45l0.07,-0l-0,0.09c0.008,-0.013 0.018,-0.025 0.029,-0.036c0.011,-0.012 0.03,-0.025 0.057,-0.038c0.027,-0.013 0.057,-0.02 0.089,-0.021l0,0.067c-0.017,0 -0.034,0.004 -0.052,0.009c-0.017,0.006 -0.035,0.015 -0.055,0.027c-0.019,0.013 -0.034,0.032 -0.046,0.057c-0.011,0.025 -0.017,0.055 -0.017,0.089l-0,0.206l-0.075,-0Z" style="fill-rule:nonzero;"/></g></g></g></svg>