<?xml version="1.0" encoding="UTF-8" standalone="no"?><!DOCTYPE svg PUBLIC "-//W3C//DTD SVG 1.1//EN" "http://www.w3.org/Graphics/SVG/1.1/DTD/svg11.dtd"><svg width="100%" height="100%" viewBox="0 0 1626 1198" version="1.1" xmlns="http://www.w3.org/2000/svg" xmlns:xlink="http://www.w3.org/1999/xlink" xml:space="preserve" xmlns:serif="http://www.serif.com/" style="fill-rule:evenodd;clip-rule:evenodd;stroke-linejoin:round;stroke-miterlimit:1.5;"><path d="M862.702,1083.45l11.052,-15.723l-10.226,-14.526l6.409,0l4.643,7.092c0.873,1.349 1.576,2.478 2.107,3.39c0.836,-1.253 1.605,-2.364 2.307,-3.333l5.099,-7.149l6.124,0l-10.454,14.242l11.251,16.007l-6.295,0l-6.209,-9.399l-1.652,-2.535l-7.947,11.934l-6.209,0Z" style="fill-rule:nonzero;"/><path d="M1026.96,1083.45l11.051,-15.723l-10.225,-14.526l6.408,0l4.643,7.092c0.874,1.349 1.576,2.478 2.108,3.39c0.835,-1.253 1.604,-2.364 2.307,-3.333l5.098,-7.149l6.124,0l-10.453,14.242l11.251,16.007l-6.295,0l-6.209,-9.399l-1.652,-2.535l-7.947,11.934l-6.209,0Z" style="fill-rule:nonzero;"/><path d="M1070.31,1076.7l-0,-11.451l-11.365,0l0,-4.785l11.365,0l-0,-11.365l4.842,0l-0,11.365l11.365,0l-0,4.785l-11.365,0l-0,11.451l-4.842,-0Z" style="fill-rule:nonzero;"/><path d="M1089.71,1083.45l16.036,-41.756l5.953,-0l17.09,41.756l-39.079,0Zm7.662,-4.928l23.213,0l-9.029,-23.783c-1.348,-3.57 -2.335,-6.456 -2.962,-8.659c-0.513,2.583 -1.263,5.241 -2.25,7.976l-8.972,24.466Z" style="fill-rule:nonzero;"/><path d="M1129.16,1083.45l11.051,-15.723l-10.225,-14.526l6.409,0l4.642,7.092c0.874,1.349 1.576,2.478 2.108,3.39c0.836,-1.253 1.605,-2.364 2.307,-3.333l5.099,-7.149l6.124,0l-10.454,14.242l11.251,16.007l-6.295,0l-6.209,-9.399l-1.652,-2.535l-7.947,11.934l-6.209,0Z" style="fill-rule:nonzero;"/><path d="M603.567,1083.45l11.052,-15.723l-10.226,-14.526l6.409,0l4.643,7.092c0.873,1.349 1.576,2.478 2.108,3.39c0.835,-1.253 1.604,-2.364 2.307,-3.333l5.098,-7.149l6.124,0l-10.453,14.242l11.251,16.007l-6.295,0l-6.209,-9.399l-1.652,-2.535l-7.947,11.934l-6.21,0Z" style="fill-rule:nonzero;"/><rect x="634.158" y="1065.76" width="15.751" height="5.155" style="fill-rule:nonzero;"/><path d="M651.675,1083.45l16.036,-41.756l5.953,-0l17.09,41.756l-39.079,0Zm7.662,-4.928l23.214,0l-9.029,-23.783c-1.348,-3.57 -2.336,-6.456 -2.962,-8.659c-0.513,2.583 -1.263,5.241 -2.251,7.976l-8.972,24.466Z" style="fill-rule:nonzero;"/><path d="M691.124,1083.45l11.052,-15.723l-10.226,-14.526l6.409,0l4.643,7.092c0.873,1.349 1.576,2.478 2.108,3.39c0.835,-1.253 1.604,-2.364 2.307,-3.333l5.098,-7.149l6.124,0l-10.453,14.242l11.251,16.007l-6.295,0l-6.21,-9.399l-1.652,-2.535l-7.946,11.934l-6.21,0Z" style="fill-rule:nonzero;"/><path d="M67.775,917.326c285.306,-218.654 651.673,-655.962 855.919,-655.962c70.5,-0 164.331,75.64 214.975,113.223c105.818,78.53 179.174,169.592 285.042,341.409" style="fill:none;stroke:#945;stroke-width:8.89px;"/><path d="M203.699,721.828l-0,-26.261l-4.529,-0l0,-3.988l4.529,0l-0,-3.219c-0,-2.031 0.18,-3.541 0.541,-4.528c0.494,-1.33 1.362,-2.407 2.606,-3.233c1.244,-0.826 2.986,-1.239 5.227,-1.239c1.443,-0 3.038,0.171 4.785,0.512l-0.769,4.472c-1.063,-0.19 -2.07,-0.285 -3.019,-0.285c-1.557,0 -2.659,0.333 -3.304,0.997c-0.646,0.665 -0.969,1.909 -0.969,3.732l0,2.791l5.896,0l0,3.988l-5.896,-0l0,26.261l-5.098,0Z" style="fill-rule:nonzero;"/><path d="M228.479,734.104c-2.829,-3.57 -5.222,-7.747 -7.178,-12.532c-1.955,-4.785 -2.933,-9.742 -2.933,-14.868c-0,-4.52 0.731,-8.849 2.193,-12.989c1.709,-4.804 4.348,-9.589 7.918,-14.355l3.674,-0c-2.297,3.949 -3.816,6.769 -4.557,8.459c-1.158,2.621 -2.07,5.355 -2.734,8.203c-0.817,3.551 -1.225,7.121 -1.225,10.71c-0,9.134 2.839,18.258 8.516,27.372l-3.674,0Z" style="fill-rule:nonzero;"/><path d="M234.688,721.828l11.052,-15.723l-10.226,-14.526l6.409,0l4.643,7.092c0.873,1.349 1.576,2.478 2.108,3.39c0.835,-1.253 1.604,-2.364 2.307,-3.333l5.098,-7.149l6.124,0l-10.453,14.242l11.251,16.007l-6.295,0l-6.209,-9.399l-1.653,-2.535l-7.946,11.934l-6.21,0Z" style="fill-rule:nonzero;"/><path d="M270.634,734.104l-3.674,0c5.677,-9.114 8.516,-18.238 8.516,-27.372c0,-3.57 -0.408,-7.111 -1.225,-10.624c-0.645,-2.848 -1.547,-5.583 -2.705,-8.203c-0.741,-1.709 -2.27,-4.558 -4.586,-8.545l3.674,-0c3.57,4.766 6.209,9.551 7.918,14.355c1.462,4.14 2.194,8.469 2.194,12.989c-0,5.126 -0.983,10.083 -2.948,14.868c-1.966,4.785 -4.354,8.962 -7.164,12.532Z" style="fill-rule:nonzero;"/><path d="M1115.49,163.822l-4.757,0l-0,-41.756l5.127,0l-0,14.897c2.165,-2.716 4.927,-4.073 8.288,-4.073c1.861,-0 3.623,0.375 5.284,1.125c1.662,0.75 3.029,1.804 4.102,3.161c1.073,1.358 1.913,2.996 2.52,4.914c0.608,1.918 0.912,3.968 0.912,6.152c-0,5.184 -1.282,9.191 -3.845,12.02c-2.564,2.829 -5.64,4.244 -9.229,4.244c-3.57,-0 -6.371,-1.491 -8.402,-4.472l-0,3.788Zm-0.057,-15.352c-0,3.627 0.493,6.247 1.481,7.861c1.614,2.64 3.798,3.959 6.551,3.959c2.241,0 4.177,-0.973 5.81,-2.919c1.633,-1.946 2.45,-4.847 2.45,-8.702c-0,-3.949 -0.783,-6.864 -2.35,-8.744c-1.566,-1.88 -3.461,-2.82 -5.682,-2.82c-2.241,0 -4.178,0.973 -5.811,2.92c-1.633,1.946 -2.449,4.761 -2.449,8.445Z" style="fill:#69c;fill-rule:nonzero;"/><path d="M1162.94,160.091c-1.898,1.614 -3.726,2.753 -5.483,3.418c-1.756,0.665 -3.641,0.997 -5.653,0.997c-3.323,-0 -5.877,-0.812 -7.662,-2.435c-1.785,-1.624 -2.678,-3.698 -2.678,-6.224c0,-1.481 0.337,-2.834 1.011,-4.059c0.674,-1.225 1.557,-2.207 2.649,-2.948c1.092,-0.74 2.322,-1.3 3.689,-1.68c1.006,-0.266 2.525,-0.522 4.557,-0.769c4.14,-0.494 7.187,-1.083 9.143,-1.766c0.019,-0.703 0.029,-1.149 0.029,-1.339c-0,-2.089 -0.485,-3.56 -1.453,-4.415c-1.31,-1.158 -3.257,-1.737 -5.839,-1.737c-2.412,-0 -4.192,0.422 -5.341,1.267c-1.148,0.845 -1.998,2.341 -2.549,4.486l-5.013,-0.683c0.456,-2.146 1.206,-3.879 2.25,-5.198c1.045,-1.32 2.554,-2.336 4.529,-3.048c1.975,-0.712 4.263,-1.068 6.865,-1.068c2.582,-0 4.68,0.304 6.294,0.911c1.614,0.608 2.801,1.372 3.561,2.293c0.759,0.921 1.291,2.084 1.595,3.489c0.171,0.874 0.256,2.45 0.256,4.728l0,6.836c0,4.767 0.109,7.781 0.328,9.044c0.218,1.263 0.65,2.473 1.296,3.631l-5.355,0c-0.532,-1.063 -0.874,-2.307 -1.026,-3.731Zm-0.427,-11.45c-1.861,0.759 -4.652,1.405 -8.374,1.937c-2.108,0.304 -3.598,0.645 -4.472,1.025c-0.873,0.38 -1.547,0.935 -2.022,1.666c-0.475,0.731 -0.712,1.543 -0.712,2.436c-0,1.367 0.517,2.506 1.552,3.418c1.035,0.911 2.55,1.367 4.543,1.367c1.975,-0 3.732,-0.432 5.27,-1.296c1.538,-0.864 2.668,-2.046 3.389,-3.546c0.551,-1.159 0.826,-2.868 0.826,-5.127l0,-1.88Z" style="fill:#69c;fill-rule:nonzero;"/><path d="M1195.39,152.742l5.041,0.656c-0.551,3.474 -1.96,6.195 -4.23,8.16c-2.269,1.965 -5.055,2.948 -8.359,2.948c-4.14,-0 -7.468,-1.353 -9.984,-4.059c-2.516,-2.706 -3.774,-6.584 -3.774,-11.635c0,-3.266 0.542,-6.124 1.624,-8.574c1.082,-2.449 2.729,-4.286 4.942,-5.511c2.212,-1.225 4.619,-1.837 7.22,-1.837c3.285,-0 5.972,0.83 8.061,2.492c2.089,1.662 3.427,4.021 4.016,7.078l-4.985,0.769c-0.474,-2.032 -1.315,-3.56 -2.52,-4.586c-1.206,-1.025 -2.664,-1.538 -4.372,-1.538c-2.583,0 -4.681,0.926 -6.295,2.777c-1.614,1.852 -2.421,4.781 -2.421,8.787c-0,4.064 0.778,7.017 2.335,8.859c1.557,1.842 3.589,2.762 6.096,2.762c2.012,0 3.693,-0.617 5.041,-1.851c1.348,-1.234 2.203,-3.133 2.564,-5.697Z" style="fill:#69c;fill-rule:nonzero;"/><path d="M1204.84,163.822l0,-41.756l5.127,0l-0,23.812l12.134,-12.305l6.636,0l-11.564,11.223l12.732,19.026l-6.323,0l-9.998,-15.466l-3.617,3.475l-0,11.991l-5.127,0Z" style="fill:#69c;fill-rule:nonzero;"/><path d="M1239.56,163.822l-9.257,-30.249l5.298,0l4.813,17.46l1.795,6.495c0.076,-0.323 0.598,-2.402 1.566,-6.238l4.814,-17.717l5.269,0l4.529,17.546l1.51,5.782l1.737,-5.839l5.184,-17.489l4.985,0l-9.457,30.249l-5.326,0l-4.814,-18.115l-1.167,-5.155l-6.124,23.27l-5.355,0Z" style="fill:#69c;fill-rule:nonzero;"/><path d="M1295.85,160.091c-1.898,1.614 -3.726,2.753 -5.483,3.418c-1.756,0.665 -3.641,0.997 -5.653,0.997c-3.323,-0 -5.877,-0.812 -7.662,-2.435c-1.785,-1.624 -2.678,-3.698 -2.678,-6.224c0,-1.481 0.337,-2.834 1.011,-4.059c0.674,-1.225 1.557,-2.207 2.649,-2.948c1.092,-0.74 2.322,-1.3 3.689,-1.68c1.006,-0.266 2.525,-0.522 4.557,-0.769c4.14,-0.494 7.187,-1.083 9.143,-1.766c0.019,-0.703 0.029,-1.149 0.029,-1.339c-0,-2.089 -0.485,-3.56 -1.453,-4.415c-1.31,-1.158 -3.257,-1.737 -5.839,-1.737c-2.412,-0 -4.192,0.422 -5.341,1.267c-1.148,0.845 -1.998,2.341 -2.549,4.486l-5.013,-0.683c0.456,-2.146 1.206,-3.879 2.25,-5.198c1.045,-1.32 2.554,-2.336 4.529,-3.048c1.975,-0.712 4.263,-1.068 6.865,-1.068c2.582,-0 4.68,0.304 6.294,0.911c1.614,0.608 2.801,1.372 3.561,2.293c0.759,0.921 1.291,2.084 1.595,3.489c0.171,0.874 0.256,2.45 0.256,4.728l0,6.836c0,4.767 0.109,7.781 0.328,9.044c0.218,1.263 0.65,2.473 1.296,3.631l-5.355,0c-0.532,-1.063 -0.874,-2.307 -1.026,-3.731Zm-0.427,-11.45c-1.861,0.759 -4.652,1.405 -8.374,1.937c-2.108,0.304 -3.598,0.645 -4.472,1.025c-0.873,0.38 -1.547,0.935 -2.022,1.666c-0.475,0.731 -0.712,1.543 -0.712,2.436c-0,1.367 0.517,2.506 1.552,3.418c1.035,0.911 2.55,1.367 4.543,1.367c1.975,-0 3.732,-0.432 5.27,-1.296c1.538,-0.864 2.668,-2.046 3.389,-3.546c0.551,-1.159 0.826,-2.868 0.826,-5.127l0,-1.88Z" style="fill:#69c;fill-rule:nonzero;"/><path d="M1308.49,163.822l-0,-30.249l4.614,0l0,4.586c1.178,-2.146 2.265,-3.56 3.262,-4.244c0.996,-0.683 2.093,-1.025 3.289,-1.025c1.728,-0 3.485,0.55 5.27,1.652l-1.766,4.756c-1.254,-0.74 -2.507,-1.11 -3.76,-1.11c-1.12,-0 -2.127,0.337 -3.019,1.011c-0.893,0.674 -1.529,1.609 -1.909,2.805c-0.569,1.823 -0.854,3.817 -0.854,5.982l-0,15.836l-5.127,0Z" style="fill:#69c;fill-rule:nonzero;"/><path d="M1347.6,163.822l0,-3.816c-1.918,3 -4.737,4.5 -8.459,4.5c-2.412,-0 -4.629,-0.665 -6.651,-1.994c-2.022,-1.329 -3.589,-3.185 -4.7,-5.568c-1.111,-2.383 -1.666,-5.123 -1.666,-8.218c-0,-3.019 0.503,-5.758 1.51,-8.217c1.006,-2.459 2.516,-4.344 4.528,-5.654c2.013,-1.31 4.263,-1.965 6.751,-1.965c1.823,-0 3.446,0.384 4.87,1.153c1.425,0.769 2.583,1.771 3.475,3.005l0,-14.982l5.099,0l-0,41.756l-4.757,0Zm-16.207,-15.096c0,3.874 0.817,6.77 2.45,8.688c1.633,1.918 3.56,2.876 5.782,2.876c2.241,0 4.144,-0.916 5.711,-2.748c1.566,-1.833 2.35,-4.629 2.35,-8.388c-0,-4.14 -0.798,-7.178 -2.393,-9.115c-1.595,-1.937 -3.56,-2.905 -5.896,-2.905c-2.279,-0 -4.182,0.93 -5.711,2.791c-1.528,1.861 -2.293,4.795 -2.293,8.801Z" style="fill:#69c;fill-rule:nonzero;"/><path d="M1396.25,163.822l0,-3.816c-1.918,3 -4.737,4.5 -8.459,4.5c-2.412,-0 -4.629,-0.665 -6.651,-1.994c-2.022,-1.329 -3.589,-3.185 -4.7,-5.568c-1.111,-2.383 -1.666,-5.123 -1.666,-8.218c0,-3.019 0.503,-5.758 1.51,-8.217c1.006,-2.459 2.516,-4.344 4.528,-5.654c2.013,-1.31 4.263,-1.965 6.751,-1.965c1.823,-0 3.446,0.384 4.871,1.153c1.424,0.769 2.582,1.771 3.474,3.005l0,-14.982l5.099,0l-0,41.756l-4.757,0Zm-16.207,-15.096c0,3.874 0.817,6.77 2.45,8.688c1.633,1.918 3.56,2.876 5.782,2.876c2.241,0 4.144,-0.916 5.711,-2.748c1.566,-1.833 2.35,-4.629 2.35,-8.388c-0,-4.14 -0.798,-7.178 -2.393,-9.115c-1.595,-1.937 -3.56,-2.905 -5.896,-2.905c-2.278,-0 -4.182,0.93 -5.711,2.791c-1.528,1.861 -2.293,4.795 -2.293,8.801Z" style="fill:#69c;fill-rule:nonzero;"/><path d="M1409.09,127.962l0,-5.896l5.127,0l0,5.896l-5.127,0Zm0,35.86l0,-30.249l5.127,0l0,30.249l-5.127,0Z" style="fill:#69c;fill-rule:nonzero;"/><path d="M1423.25,163.822l0,-26.261l-4.529,-0l0,-3.988l4.529,0l0,-3.218c0,-2.032 0.181,-3.542 0.541,-4.529c0.494,-1.329 1.363,-2.407 2.607,-3.233c1.243,-0.826 2.986,-1.239 5.226,-1.239c1.443,0 3.038,0.171 4.785,0.513l-0.769,4.472c-1.063,-0.19 -2.069,-0.285 -3.019,-0.285c-1.557,-0 -2.658,0.332 -3.304,0.997c-0.645,0.664 -0.968,1.908 -0.968,3.731l-0,2.791l5.896,0l-0,3.988l-5.896,-0l-0,26.261l-5.099,0Z" style="fill:#69c;fill-rule:nonzero;"/><path d="M1438.4,163.822l0,-26.261l-4.529,-0l0,-3.988l4.529,0l0,-3.218c0,-2.032 0.181,-3.542 0.541,-4.529c0.494,-1.329 1.363,-2.407 2.607,-3.233c1.243,-0.826 2.986,-1.239 5.226,-1.239c1.443,0 3.038,0.171 4.785,0.513l-0.769,4.472c-1.063,-0.19 -2.069,-0.285 -3.019,-0.285c-1.557,-0 -2.658,0.332 -3.304,0.997c-0.645,0.664 -0.968,1.908 -0.968,3.731l-0,2.791l5.896,0l-0,3.988l-5.896,-0l-0,26.261l-5.099,0Z" style="fill:#69c;fill-rule:nonzero;"/><path d="M1474.09,154.081l5.297,0.655c-0.835,3.095 -2.383,5.497 -4.642,7.206c-2.26,1.709 -5.146,2.564 -8.659,2.564c-4.425,-0 -7.933,-1.362 -10.525,-4.087c-2.592,-2.725 -3.888,-6.547 -3.888,-11.465c0,-5.089 1.311,-9.038 3.931,-11.849c2.62,-2.81 6.019,-4.215 10.197,-4.215c4.045,-0 7.349,1.376 9.912,4.13c2.564,2.753 3.845,6.627 3.845,11.621c0,0.304 -0.009,0.759 -0.028,1.367l-22.559,0c0.19,3.323 1.13,5.868 2.82,7.634c1.69,1.765 3.798,2.648 6.323,2.648c1.88,0 3.485,-0.493 4.814,-1.481c1.329,-0.987 2.383,-2.563 3.162,-4.728Zm-16.834,-8.288l16.89,-0c-0.227,-2.545 -0.873,-4.453 -1.936,-5.726c-1.633,-1.974 -3.751,-2.962 -6.352,-2.962c-2.355,0 -4.334,0.788 -5.939,2.364c-1.604,1.576 -2.492,3.684 -2.663,6.324Z" style="fill:#69c;fill-rule:nonzero;"/><path d="M1485.77,163.822l-0,-30.249l4.614,0l-0,4.586c1.177,-2.146 2.264,-3.56 3.261,-4.244c0.997,-0.683 2.094,-1.025 3.29,-1.025c1.728,-0 3.484,0.55 5.269,1.652l-1.766,4.756c-1.253,-0.74 -2.506,-1.11 -3.759,-1.11c-1.121,-0 -2.127,0.337 -3.02,1.011c-0.892,0.674 -1.528,1.609 -1.908,2.805c-0.57,1.823 -0.854,3.817 -0.854,5.982l-0,15.836l-5.127,0Z" style="fill:#69c;fill-rule:nonzero;"/><path d="M1525.96,154.081l5.298,0.655c-0.835,3.095 -2.383,5.497 -4.643,7.206c-2.259,1.709 -5.146,2.564 -8.659,2.564c-4.424,-0 -7.932,-1.362 -10.524,-4.087c-2.592,-2.725 -3.888,-6.547 -3.888,-11.465c0,-5.089 1.31,-9.038 3.931,-11.849c2.62,-2.81 6.019,-4.215 10.197,-4.215c4.044,-0 7.348,1.376 9.912,4.13c2.563,2.753 3.845,6.627 3.845,11.621c-0,0.304 -0.01,0.759 -0.029,1.367l-22.558,0c0.19,3.323 1.13,5.868 2.82,7.634c1.69,1.765 3.797,2.648 6.323,2.648c1.88,0 3.484,-0.493 4.814,-1.481c1.329,-0.987 2.383,-2.563 3.161,-4.728Zm-16.833,-8.288l16.89,-0c-0.228,-2.545 -0.873,-4.453 -1.937,-5.726c-1.633,-1.974 -3.75,-2.962 -6.351,-2.962c-2.355,0 -4.335,0.788 -5.939,2.364c-1.605,1.576 -2.492,3.684 -2.663,6.324Z" style="fill:#69c;fill-rule:nonzero;"/><path d="M1537.69,163.822l0,-30.249l4.614,0l0,4.301c2.222,-3.323 5.431,-4.984 9.628,-4.984c1.823,-0 3.498,0.327 5.027,0.982c1.529,0.656 2.673,1.515 3.432,2.578c0.76,1.063 1.291,2.326 1.595,3.788c0.19,0.95 0.285,2.611 0.285,4.985l0,18.599l-5.127,0l0,-18.4c0,-2.088 -0.199,-3.65 -0.598,-4.685c-0.399,-1.035 -1.106,-1.861 -2.122,-2.478c-1.016,-0.617 -2.207,-0.926 -3.575,-0.926c-2.183,0 -4.068,0.693 -5.653,2.079c-1.586,1.387 -2.379,4.016 -2.379,7.89l0,16.52l-5.127,0Z" style="fill:#69c;fill-rule:nonzero;"/><path d="M1589.88,152.742l5.042,0.656c-0.551,3.474 -1.961,6.195 -4.23,8.16c-2.269,1.965 -5.056,2.948 -8.36,2.948c-4.139,-0 -7.467,-1.353 -9.983,-4.059c-2.516,-2.706 -3.774,-6.584 -3.774,-11.635c-0,-3.266 0.541,-6.124 1.623,-8.574c1.083,-2.449 2.73,-4.286 4.942,-5.511c2.212,-1.225 4.619,-1.837 7.221,-1.837c3.285,-0 5.972,0.83 8.06,2.492c2.089,1.662 3.428,4.021 4.017,7.078l-4.985,0.769c-0.475,-2.032 -1.315,-3.56 -2.521,-4.586c-1.206,-1.025 -2.663,-1.538 -4.372,-1.538c-2.582,0 -4.681,0.926 -6.295,2.777c-1.614,1.852 -2.421,4.781 -2.421,8.787c0,4.064 0.779,7.017 2.336,8.859c1.557,1.842 3.589,2.762 6.095,2.762c2.013,0 3.694,-0.617 5.042,-1.851c1.348,-1.234 2.202,-3.133 2.563,-5.697Z" style="fill:#69c;fill-rule:nonzero;"/><path d="M1620.01,154.081l5.298,0.655c-0.835,3.095 -2.383,5.497 -4.643,7.206c-2.259,1.709 -5.146,2.564 -8.658,2.564c-4.425,-0 -7.933,-1.362 -10.525,-4.087c-2.592,-2.725 -3.888,-6.547 -3.888,-11.465c0,-5.089 1.31,-9.038 3.931,-11.849c2.62,-2.81 6.019,-4.215 10.197,-4.215c4.044,-0 7.348,1.376 9.912,4.13c2.563,2.753 3.845,6.627 3.845,11.621c0,0.304 -0.009,0.759 -0.028,1.367l-22.559,0c0.19,3.323 1.13,5.868 2.82,7.634c1.69,1.765 3.798,2.648 6.323,2.648c1.88,0 3.484,-0.493 4.814,-1.481c1.329,-0.987 2.383,-2.563 3.161,-4.728Zm-16.833,-8.288l16.89,-0c-0.228,-2.545 -0.873,-4.453 -1.937,-5.726c-1.633,-1.974 -3.75,-2.962 -6.351,-2.962c-2.355,0 -4.334,0.788 -5.939,2.364c-1.605,1.576 -2.492,3.684 -2.663,6.324Z" style="fill:#69c;fill-rule:nonzero;"/><path d="M171.359,376.31l5.041,0.655c-0.55,3.475 -1.96,6.195 -4.23,8.16c-2.269,1.966 -5.055,2.948 -8.359,2.948c-4.14,0 -7.468,-1.353 -9.984,-4.059c-2.516,-2.705 -3.774,-6.584 -3.774,-11.635c0,-3.266 0.542,-6.124 1.624,-8.573c1.082,-2.45 2.73,-4.287 4.942,-5.512c2.212,-1.225 4.619,-1.837 7.22,-1.837c3.285,0 5.972,0.831 8.061,2.492c2.089,1.662 3.427,4.021 4.016,7.078l-4.985,0.769c-0.474,-2.031 -1.314,-3.56 -2.52,-4.585c-1.206,-1.026 -2.663,-1.538 -4.372,-1.538c-2.583,-0 -4.681,0.925 -6.295,2.777c-1.614,1.851 -2.421,4.78 -2.421,8.787c-0,4.063 0.778,7.016 2.335,8.858c1.557,1.842 3.589,2.763 6.096,2.763c2.013,-0 3.693,-0.617 5.041,-1.852c1.348,-1.234 2.203,-3.133 2.564,-5.696Z" style="fill:#048;fill-rule:nonzero;"/><path d="M201.494,377.648l5.298,0.656c-0.836,3.095 -2.383,5.497 -4.643,7.206c-2.26,1.709 -5.146,2.563 -8.659,2.563c-4.424,0 -7.932,-1.362 -10.524,-4.087c-2.592,-2.725 -3.888,-6.546 -3.888,-11.464c-0,-5.089 1.31,-9.039 3.93,-11.849c2.621,-2.811 6.02,-4.216 10.197,-4.216c4.045,0 7.349,1.377 9.912,4.13c2.564,2.753 3.846,6.627 3.846,11.621c-0,0.304 -0.01,0.76 -0.029,1.367l-22.559,0c0.19,3.323 1.13,5.868 2.82,7.634c1.69,1.766 3.798,2.649 6.324,2.649c1.879,-0 3.484,-0.494 4.813,-1.481c1.329,-0.988 2.383,-2.564 3.162,-4.729Zm-16.834,-8.288l16.891,-0c-0.228,-2.545 -0.874,-4.453 -1.937,-5.725c-1.633,-1.975 -3.75,-2.962 -6.352,-2.962c-2.354,-0 -4.334,0.788 -5.939,2.364c-1.604,1.576 -2.492,3.683 -2.663,6.323Z" style="fill:#048;fill-rule:nonzero;"/><path d="M213.229,387.39l-0,-30.249l4.614,-0l0,4.301c2.222,-3.323 5.431,-4.985 9.627,-4.985c1.823,0 3.499,0.328 5.028,0.983c1.528,0.655 2.672,1.514 3.432,2.577c0.759,1.064 1.291,2.327 1.595,3.789c0.19,0.949 0.285,2.611 0.285,4.984l-0,18.6l-5.127,-0l-0,-18.4c-0,-2.089 -0.2,-3.651 -0.598,-4.686c-0.399,-1.035 -1.106,-1.861 -2.122,-2.478c-1.016,-0.617 -2.208,-0.926 -3.575,-0.926c-2.184,0 -4.068,0.694 -5.654,2.08c-1.585,1.386 -2.378,4.016 -2.378,7.89l-0,16.52l-5.127,-0Z" style="fill:#048;fill-rule:nonzero;"/><path d="M256.865,382.804l0.74,4.529c-1.443,0.304 -2.734,0.455 -3.873,0.455c-1.861,0 -3.304,-0.294 -4.33,-0.883c-1.025,-0.588 -1.747,-1.362 -2.164,-2.321c-0.418,-0.959 -0.627,-2.976 -0.627,-6.053l0,-17.403l-3.76,0l0,-3.987l3.76,-0l0,-7.491l5.098,-3.077l0,10.568l5.156,-0l-0,3.987l-5.156,0l0,17.688c0,1.462 0.091,2.402 0.271,2.82c0.18,0.418 0.475,0.75 0.883,0.997c0.408,0.247 0.992,0.37 1.752,0.37c0.569,0 1.319,-0.066 2.25,-0.199Z" style="fill:#048;fill-rule:nonzero;"/><path d="M261.821,387.39l-0,-30.249l4.614,-0l0,4.585c1.178,-2.145 2.265,-3.56 3.262,-4.244c0.996,-0.683 2.093,-1.025 3.289,-1.025c1.728,0 3.485,0.551 5.27,1.652l-1.766,4.757c-1.254,-0.741 -2.507,-1.111 -3.76,-1.111c-1.12,-0 -2.127,0.337 -3.019,1.011c-0.893,0.674 -1.529,1.609 -1.909,2.806c-0.569,1.823 -0.854,3.816 -0.854,5.981l-0,15.837l-5.127,-0Z" style="fill:#048;fill-rule:nonzero;"/><path d="M301.042,383.658c-1.899,1.614 -3.726,2.754 -5.483,3.418c-1.756,0.665 -3.641,0.997 -5.654,0.997c-3.323,0 -5.877,-0.811 -7.662,-2.435c-1.785,-1.624 -2.677,-3.698 -2.677,-6.224c-0,-1.481 0.337,-2.834 1.011,-4.058c0.674,-1.225 1.557,-2.208 2.649,-2.948c1.092,-0.741 2.321,-1.301 3.689,-1.681c1.006,-0.266 2.525,-0.522 4.557,-0.769c4.139,-0.494 7.187,-1.082 9.143,-1.766c0.019,-0.702 0.028,-1.149 0.028,-1.339c0,-2.088 -0.484,-3.56 -1.452,-4.414c-1.31,-1.159 -3.257,-1.738 -5.839,-1.738c-2.412,0 -4.192,0.423 -5.341,1.268c-1.149,0.845 -1.998,2.34 -2.549,4.486l-5.013,-0.684c0.456,-2.146 1.206,-3.878 2.25,-5.198c1.044,-1.32 2.554,-2.336 4.529,-3.048c1.975,-0.712 4.263,-1.068 6.864,-1.068c2.583,0 4.681,0.304 6.295,0.912c1.614,0.607 2.801,1.371 3.56,2.292c0.76,0.921 1.292,2.084 1.595,3.49c0.171,0.873 0.257,2.449 0.257,4.728l-0,6.836c-0,4.766 0.109,7.78 0.327,9.043c0.219,1.263 0.651,2.473 1.296,3.632l-5.354,-0c-0.532,-1.064 -0.874,-2.307 -1.026,-3.732Zm-0.427,-11.45c-1.861,0.76 -4.652,1.405 -8.374,1.937c-2.108,0.304 -3.598,0.646 -4.472,1.025c-0.873,0.38 -1.548,0.936 -2.022,1.667c-0.475,0.731 -0.712,1.543 -0.712,2.435c-0,1.367 0.517,2.507 1.552,3.418c1.035,0.911 2.549,1.367 4.543,1.367c1.975,0 3.731,-0.432 5.269,-1.296c1.538,-0.864 2.668,-2.046 3.39,-3.546c0.551,-1.158 0.826,-2.867 0.826,-5.127l-0,-1.88Z" style="fill:#048;fill-rule:nonzero;"/><rect x="313.632" y="345.633" width="5.127" height="41.756" style="fill:#048;fill-rule:nonzero;"/><path d="M362.537,387.39l0,-3.817c-1.918,3 -4.738,4.5 -8.459,4.5c-2.412,0 -4.629,-0.664 -6.651,-1.994c-2.022,-1.329 -3.589,-3.185 -4.7,-5.568c-1.111,-2.383 -1.666,-5.122 -1.666,-8.217c-0,-3.02 0.503,-5.759 1.509,-8.218c1.007,-2.459 2.516,-4.343 4.529,-5.654c2.013,-1.31 4.263,-1.965 6.751,-1.965c1.823,0 3.446,0.385 4.87,1.154c1.425,0.769 2.583,1.77 3.475,3.005l0,-14.983l5.099,0l-0,41.757l-4.757,-0Zm-16.207,-15.096c0,3.873 0.817,6.769 2.45,8.687c1.633,1.918 3.56,2.877 5.782,2.877c2.241,-0 4.144,-0.916 5.711,-2.749c1.566,-1.832 2.35,-4.628 2.35,-8.388c-0,-4.14 -0.798,-7.178 -2.393,-9.115c-1.595,-1.937 -3.56,-2.905 -5.896,-2.905c-2.279,0 -4.182,0.93 -5.711,2.791c-1.528,1.861 -2.293,4.795 -2.293,8.802Z" style="fill:#048;fill-rule:nonzero;"/><path d="M375.383,351.529l-0,-5.896l5.127,0l-0,5.896l-5.127,0Zm-0,35.861l-0,-30.249l5.127,-0l-0,30.249l-5.127,-0Z" style="fill:#048;fill-rule:nonzero;"/><path d="M389.539,387.39l0,-26.262l-4.529,0l0,-3.987l4.529,-0l0,-3.219c0,-2.032 0.18,-3.541 0.541,-4.529c0.494,-1.329 1.363,-2.407 2.606,-3.233c1.244,-0.826 2.986,-1.239 5.227,-1.239c1.443,0 3.038,0.171 4.785,0.513l-0.769,4.472c-1.063,-0.19 -2.07,-0.285 -3.019,-0.285c-1.557,0 -2.658,0.332 -3.304,0.997c-0.646,0.665 -0.968,1.908 -0.968,3.731l-0,2.792l5.896,-0l-0,3.987l-5.896,0l-0,26.262l-5.099,-0Z" style="fill:#048;fill-rule:nonzero;"/><path d="M404.692,387.39l0,-26.262l-4.529,0l0,-3.987l4.529,-0l0,-3.219c0,-2.032 0.18,-3.541 0.541,-4.529c0.494,-1.329 1.363,-2.407 2.606,-3.233c1.244,-0.826 2.986,-1.239 5.227,-1.239c1.443,0 3.038,0.171 4.785,0.513l-0.769,4.472c-1.063,-0.19 -2.07,-0.285 -3.019,-0.285c-1.557,0 -2.658,0.332 -3.304,0.997c-0.646,0.665 -0.968,1.908 -0.968,3.731l-0,2.792l5.896,-0l-0,3.987l-5.896,0l-0,26.262l-5.099,-0Z" style="fill:#048;fill-rule:nonzero;"/><path d="M440.381,377.648l5.298,0.656c-0.835,3.095 -2.383,5.497 -4.643,7.206c-2.259,1.709 -5.145,2.563 -8.658,2.563c-4.425,0 -7.933,-1.362 -10.525,-4.087c-2.592,-2.725 -3.888,-6.546 -3.888,-11.464c0,-5.089 1.31,-9.039 3.931,-11.849c2.62,-2.811 6.019,-4.216 10.197,-4.216c4.044,0 7.348,1.377 9.912,4.13c2.563,2.753 3.845,6.627 3.845,11.621c0,0.304 -0.009,0.76 -0.028,1.367l-22.559,0c0.19,3.323 1.13,5.868 2.82,7.634c1.69,1.766 3.798,2.649 6.323,2.649c1.88,-0 3.485,-0.494 4.814,-1.481c1.329,-0.988 2.383,-2.564 3.161,-4.729Zm-16.833,-8.288l16.89,-0c-0.228,-2.545 -0.873,-4.453 -1.937,-5.725c-1.633,-1.975 -3.75,-2.962 -6.351,-2.962c-2.355,-0 -4.334,0.788 -5.939,2.364c-1.605,1.576 -2.492,3.683 -2.663,6.323Z" style="fill:#048;fill-rule:nonzero;"/><path d="M452.059,387.39l0,-30.249l4.615,-0l-0,4.585c1.177,-2.145 2.264,-3.56 3.261,-4.244c0.997,-0.683 2.093,-1.025 3.29,-1.025c1.728,0 3.484,0.551 5.269,1.652l-1.766,4.757c-1.253,-0.741 -2.506,-1.111 -3.76,-1.111c-1.12,-0 -2.126,0.337 -3.019,1.011c-0.892,0.674 -1.528,1.609 -1.908,2.806c-0.57,1.823 -0.855,3.816 -0.855,5.981l0,15.837l-5.127,-0Z" style="fill:#048;fill-rule:nonzero;"/><path d="M492.249,377.648l5.298,0.656c-0.836,3.095 -2.383,5.497 -4.643,7.206c-2.26,1.709 -5.146,2.563 -8.659,2.563c-4.424,0 -7.932,-1.362 -10.524,-4.087c-2.592,-2.725 -3.888,-6.546 -3.888,-11.464c-0,-5.089 1.31,-9.039 3.931,-11.849c2.62,-2.811 6.019,-4.216 10.196,-4.216c4.045,0 7.349,1.377 9.913,4.13c2.563,2.753 3.845,6.627 3.845,11.621c-0,0.304 -0.01,0.76 -0.029,1.367l-22.558,0c0.19,3.323 1.13,5.868 2.82,7.634c1.69,1.766 3.797,2.649 6.323,2.649c1.88,-0 3.484,-0.494 4.813,-1.481c1.33,-0.988 2.383,-2.564 3.162,-4.729Zm-16.833,-8.288l16.89,-0c-0.228,-2.545 -0.873,-4.453 -1.937,-5.725c-1.633,-1.975 -3.75,-2.962 -6.352,-2.962c-2.354,-0 -4.334,0.788 -5.938,2.364c-1.605,1.576 -2.493,3.683 -2.663,6.323Z" style="fill:#048;fill-rule:nonzero;"/><path d="M503.984,387.39l0,-30.249l4.614,-0l0,4.301c2.222,-3.323 5.431,-4.985 9.628,-4.985c1.823,0 3.498,0.328 5.027,0.983c1.528,0.655 2.673,1.514 3.432,2.577c0.76,1.064 1.291,2.327 1.595,3.789c0.19,0.949 0.285,2.611 0.285,4.984l-0,18.6l-5.127,-0l-0,-18.4c-0,-2.089 -0.199,-3.651 -0.598,-4.686c-0.399,-1.035 -1.106,-1.861 -2.122,-2.478c-1.016,-0.617 -2.208,-0.926 -3.575,-0.926c-2.183,0 -4.068,0.694 -5.654,2.08c-1.585,1.386 -2.378,4.016 -2.378,7.89l0,16.52l-5.127,-0Z" style="fill:#048;fill-rule:nonzero;"/><path d="M556.165,376.31l5.042,0.655c-0.551,3.475 -1.961,6.195 -4.23,8.16c-2.269,1.966 -5.056,2.948 -8.36,2.948c-4.14,0 -7.467,-1.353 -9.983,-4.059c-2.516,-2.705 -3.774,-6.584 -3.774,-11.635c-0,-3.266 0.541,-6.124 1.623,-8.573c1.083,-2.45 2.73,-4.287 4.942,-5.512c2.212,-1.225 4.619,-1.837 7.221,-1.837c3.285,0 5.971,0.831 8.06,2.492c2.089,1.662 3.428,4.021 4.016,7.078l-4.984,0.769c-0.475,-2.031 -1.315,-3.56 -2.521,-4.585c-1.206,-1.026 -2.663,-1.538 -4.372,-1.538c-2.583,-0 -4.681,0.925 -6.295,2.777c-1.614,1.851 -2.421,4.78 -2.421,8.787c0,4.063 0.779,7.016 2.336,8.858c1.557,1.842 3.589,2.763 6.095,2.763c2.013,-0 3.693,-0.617 5.042,-1.852c1.348,-1.234 2.202,-3.133 2.563,-5.696Z" style="fill:#048;fill-rule:nonzero;"/><path d="M586.3,377.648l5.298,0.656c-0.836,3.095 -2.383,5.497 -4.643,7.206c-2.259,1.709 -5.146,2.563 -8.659,2.563c-4.424,0 -7.932,-1.362 -10.524,-4.087c-2.592,-2.725 -3.888,-6.546 -3.888,-11.464c-0,-5.089 1.31,-9.039 3.931,-11.849c2.62,-2.811 6.019,-4.216 10.197,-4.216c4.044,0 7.348,1.377 9.912,4.13c2.563,2.753 3.845,6.627 3.845,11.621c-0,0.304 -0.01,0.76 -0.029,1.367l-22.558,0c0.19,3.323 1.13,5.868 2.82,7.634c1.69,1.766 3.797,2.649 6.323,2.649c1.88,-0 3.484,-0.494 4.814,-1.481c1.329,-0.988 2.383,-2.564 3.161,-4.729Zm-16.833,-8.288l16.89,-0c-0.228,-2.545 -0.873,-4.453 -1.937,-5.725c-1.633,-1.975 -3.75,-2.962 -6.351,-2.962c-2.355,-0 -4.335,0.788 -5.939,2.364c-1.605,1.576 -2.492,3.683 -2.663,6.323Z" style="fill:#048;fill-rule:nonzero;"/><path d="M184.45,216.647l-0,-26.262l-4.529,0l-0,-3.987l4.529,-0l-0,-3.219c-0,-2.032 0.18,-3.541 0.541,-4.529c0.494,-1.329 1.362,-2.407 2.606,-3.233c1.244,-0.826 2.986,-1.239 5.227,-1.239c1.443,0 3.038,0.171 4.785,0.513l-0.769,4.472c-1.064,-0.19 -2.07,-0.285 -3.019,-0.285c-1.557,0 -2.659,0.332 -3.304,0.997c-0.646,0.665 -0.969,1.908 -0.969,3.731l0,2.792l5.896,-0l0,3.987l-5.896,0l0,26.262l-5.098,-0Z" style="fill:#65b400;fill-rule:nonzero;"/><path d="M197.523,201.522c0,-5.602 1.557,-9.751 4.672,-12.447c2.601,-2.241 5.772,-3.361 9.513,-3.361c4.159,0 7.557,1.362 10.197,4.087c2.639,2.725 3.959,6.49 3.959,11.294c0,3.893 -0.584,6.954 -1.752,9.186c-1.167,2.231 -2.867,3.964 -5.098,5.198c-2.231,1.234 -4.667,1.851 -7.306,1.851c-4.235,0 -7.657,-1.357 -10.268,-4.073c-2.611,-2.715 -3.917,-6.627 -3.917,-11.735Zm5.27,0c-0,3.874 0.845,6.774 2.535,8.702c1.69,1.927 3.817,2.891 6.38,2.891c2.544,-0 4.662,-0.969 6.352,-2.906c1.69,-1.936 2.535,-4.889 2.535,-8.858c-0,-3.741 -0.85,-6.575 -2.55,-8.502c-1.699,-1.927 -3.812,-2.891 -6.337,-2.891c-2.563,0 -4.69,0.959 -6.38,2.877c-1.69,1.918 -2.535,4.813 -2.535,8.687Z" style="fill:#65b400;fill-rule:nonzero;"/><path d="M231.817,216.647l0,-30.249l4.614,-0l0,4.585c1.178,-2.145 2.265,-3.56 3.262,-4.244c0.997,-0.683 2.093,-1.025 3.289,-1.025c1.728,0 3.485,0.551 5.27,1.652l-1.766,4.757c-1.253,-0.741 -2.507,-1.111 -3.76,-1.111c-1.12,-0 -2.127,0.337 -3.019,1.011c-0.893,0.674 -1.529,1.609 -1.909,2.806c-0.569,1.823 -0.854,3.816 -0.854,5.981l-0,15.837l-5.127,-0Z" style="fill:#65b400;fill-rule:nonzero;"/><path d="M256.882,216.647l-9.257,-30.249l5.298,-0l4.814,17.46l1.794,6.494c0.076,-0.323 0.598,-2.402 1.567,-6.238l4.813,-17.716l5.27,-0l4.528,17.545l1.51,5.782l1.738,-5.839l5.183,-17.488l4.985,-0l-9.456,30.249l-5.327,-0l-4.813,-18.116l-1.168,-5.155l-6.124,23.271l-5.355,-0Z" style="fill:#65b400;fill-rule:nonzero;"/><path d="M313.165,212.915c-1.899,1.614 -3.727,2.754 -5.483,3.418c-1.757,0.665 -3.641,0.997 -5.654,0.997c-3.323,0 -5.877,-0.812 -7.662,-2.435c-1.785,-1.624 -2.678,-3.698 -2.678,-6.224c0,-1.481 0.338,-2.834 1.012,-4.058c0.674,-1.225 1.557,-2.208 2.649,-2.948c1.091,-0.741 2.321,-1.301 3.688,-1.681c1.006,-0.266 2.526,-0.522 4.557,-0.769c4.14,-0.494 7.188,-1.082 9.143,-1.766c0.019,-0.703 0.029,-1.149 0.029,-1.339c-0,-2.088 -0.484,-3.56 -1.453,-4.415c-1.31,-1.158 -3.256,-1.737 -5.839,-1.737c-2.411,0 -4.191,0.423 -5.34,1.267c-1.149,0.845 -1.999,2.341 -2.55,4.487l-5.013,-0.684c0.456,-2.146 1.206,-3.878 2.251,-5.198c1.044,-1.32 2.554,-2.336 4.528,-3.048c1.975,-0.712 4.263,-1.068 6.865,-1.068c2.582,0 4.681,0.304 6.295,0.911c1.614,0.608 2.8,1.372 3.56,2.293c0.76,0.921 1.291,2.084 1.595,3.49c0.171,0.873 0.256,2.449 0.256,4.728l0,6.836c0,4.766 0.11,7.78 0.328,9.043c0.218,1.263 0.65,2.473 1.296,3.632l-5.355,-0c-0.532,-1.064 -0.873,-2.307 -1.025,-3.732Zm-0.428,-11.45c-1.86,0.76 -4.652,1.405 -8.374,1.937c-2.107,0.304 -3.598,0.646 -4.471,1.025c-0.874,0.38 -1.548,0.936 -2.023,1.667c-0.474,0.731 -0.712,1.542 -0.712,2.435c0,1.367 0.518,2.506 1.553,3.418c1.034,0.911 2.549,1.367 4.543,1.367c1.974,0 3.731,-0.432 5.269,-1.296c1.538,-0.864 2.668,-2.046 3.389,-3.546c0.551,-1.158 0.826,-2.867 0.826,-5.127l0,-1.88Z" style="fill:#65b400;fill-rule:nonzero;"/><path d="M325.811,216.647l0,-30.249l4.614,-0l0,4.585c1.178,-2.145 2.265,-3.56 3.262,-4.244c0.997,-0.683 2.093,-1.025 3.29,-1.025c1.728,0 3.484,0.551 5.269,1.652l-1.766,4.757c-1.253,-0.741 -2.507,-1.111 -3.76,-1.111c-1.12,-0 -2.127,0.337 -3.019,1.011c-0.892,0.674 -1.529,1.609 -1.908,2.806c-0.57,1.823 -0.855,3.816 -0.855,5.981l0,15.837l-5.127,-0Z" style="fill:#65b400;fill-rule:nonzero;"/><path d="M364.918,216.647l0,-3.817c-1.917,3 -4.737,4.5 -8.459,4.5c-2.412,0 -4.629,-0.664 -6.651,-1.994c-2.022,-1.329 -3.589,-3.185 -4.7,-5.568c-1.11,-2.383 -1.666,-5.122 -1.666,-8.217c0,-3.02 0.503,-5.759 1.51,-8.218c1.006,-2.459 2.516,-4.343 4.529,-5.654c2.012,-1.31 4.263,-1.965 6.75,-1.965c1.823,0 3.447,0.385 4.871,1.154c1.424,0.769 2.582,1.77 3.475,3.005l-0,-14.983l5.098,0l0,41.757l-4.757,-0Zm-16.206,-15.096c-0,3.873 0.816,6.769 2.449,8.687c1.633,1.918 3.56,2.877 5.782,2.877c2.241,-0 4.144,-0.916 5.711,-2.749c1.567,-1.832 2.35,-4.628 2.35,-8.388c-0,-4.14 -0.798,-7.178 -2.393,-9.115c-1.595,-1.937 -3.56,-2.905 -5.896,-2.905c-2.278,0 -4.182,0.93 -5.711,2.791c-1.528,1.861 -2.292,4.795 -2.292,8.802Z" style="fill:#65b400;fill-rule:nonzero;"/><path d="M413.568,216.647l-0,-3.817c-1.918,3 -4.738,4.5 -8.46,4.5c-2.412,0 -4.628,-0.664 -6.651,-1.994c-2.022,-1.329 -3.589,-3.185 -4.699,-5.568c-1.111,-2.383 -1.667,-5.122 -1.667,-8.217c0,-3.02 0.503,-5.759 1.51,-8.218c1.006,-2.459 2.516,-4.343 4.529,-5.654c2.012,-1.31 4.263,-1.965 6.75,-1.965c1.823,0 3.447,0.385 4.871,1.154c1.424,0.769 2.582,1.77 3.475,3.005l-0,-14.983l5.098,0l0,41.757l-4.756,-0Zm-16.207,-15.096c-0,3.873 0.816,6.769 2.449,8.687c1.633,1.918 3.561,2.877 5.782,2.877c2.241,-0 4.145,-0.916 5.711,-2.749c1.567,-1.832 2.35,-4.628 2.35,-8.388c-0,-4.14 -0.798,-7.178 -2.393,-9.115c-1.595,-1.937 -3.56,-2.905 -5.896,-2.905c-2.278,0 -4.182,0.93 -5.71,2.791c-1.529,1.861 -2.293,4.795 -2.293,8.802Z" style="fill:#65b400;fill-rule:nonzero;"/><path d="M426.413,180.786l0,-5.896l5.127,0l0,5.896l-5.127,0Zm0,35.861l0,-30.249l5.127,-0l0,30.249l-5.127,-0Z" style="fill:#65b400;fill-rule:nonzero;"/><path d="M440.569,216.647l0,-26.262l-4.528,0l-0,-3.987l4.528,-0l0,-3.219c0,-2.032 0.181,-3.541 0.542,-4.529c0.493,-1.329 1.362,-2.407 2.606,-3.233c1.244,-0.826 2.986,-1.239 5.226,-1.239c1.444,0 3.039,0.171 4.786,0.513l-0.769,4.472c-1.064,-0.19 -2.07,-0.285 -3.02,-0.285c-1.557,0 -2.658,0.332 -3.304,0.997c-0.645,0.665 -0.968,1.908 -0.968,3.731l-0,2.792l5.896,-0l-0,3.987l-5.896,0l-0,26.262l-5.099,-0Z" style="fill:#65b400;fill-rule:nonzero;"/><path d="M455.722,216.647l0,-26.262l-4.528,0l-0,-3.987l4.528,-0l0,-3.219c0,-2.032 0.181,-3.541 0.542,-4.529c0.493,-1.329 1.362,-2.407 2.606,-3.233c1.244,-0.826 2.986,-1.239 5.226,-1.239c1.444,0 3.039,0.171 4.786,0.513l-0.769,4.472c-1.064,-0.19 -2.07,-0.285 -3.02,-0.285c-1.557,0 -2.658,0.332 -3.304,0.997c-0.645,0.665 -0.968,1.908 -0.968,3.731l-0,2.792l5.896,-0l-0,3.987l-5.896,0l-0,26.262l-5.099,-0Z" style="fill:#65b400;fill-rule:nonzero;"/><path d="M491.412,206.905l5.298,0.656c-0.836,3.095 -2.383,5.497 -4.643,7.206c-2.26,1.709 -5.146,2.563 -8.659,2.563c-4.424,0 -7.933,-1.362 -10.524,-4.087c-2.592,-2.725 -3.888,-6.546 -3.888,-11.465c-0,-5.088 1.31,-9.038 3.93,-11.848c2.621,-2.811 6.02,-4.216 10.197,-4.216c4.045,0 7.349,1.377 9.912,4.13c2.564,2.753 3.846,6.627 3.846,11.621c-0,0.304 -0.01,0.76 -0.029,1.367l-22.559,0c0.19,3.323 1.13,5.868 2.82,7.634c1.69,1.766 3.798,2.649 6.323,2.649c1.88,-0 3.485,-0.494 4.814,-1.481c1.329,-0.988 2.383,-2.564 3.162,-4.729Zm-16.834,-8.288l16.891,-0c-0.228,-2.545 -0.874,-4.453 -1.937,-5.725c-1.633,-1.975 -3.75,-2.962 -6.352,-2.962c-2.354,-0 -4.334,0.788 -5.939,2.364c-1.604,1.576 -2.492,3.683 -2.663,6.323Z" style="fill:#65b400;fill-rule:nonzero;"/><path d="M503.09,216.647l-0,-30.249l4.614,-0l0,4.585c1.177,-2.145 2.264,-3.56 3.261,-4.244c0.997,-0.683 2.094,-1.025 3.29,-1.025c1.728,0 3.485,0.551 5.27,1.652l-1.766,4.757c-1.254,-0.741 -2.507,-1.111 -3.76,-1.111c-1.12,-0 -2.127,0.337 -3.019,1.011c-0.893,0.674 -1.529,1.609 -1.909,2.806c-0.569,1.823 -0.854,3.816 -0.854,5.981l-0,15.837l-5.127,-0Z" style="fill:#65b400;fill-rule:nonzero;"/><path d="M543.279,206.905l5.298,0.656c-0.835,3.095 -2.383,5.497 -4.642,7.206c-2.26,1.709 -5.146,2.563 -8.659,2.563c-4.425,0 -7.933,-1.362 -10.525,-4.087c-2.592,-2.725 -3.888,-6.546 -3.888,-11.465c0,-5.088 1.31,-9.038 3.931,-11.848c2.62,-2.811 6.019,-4.216 10.197,-4.216c4.044,0 7.348,1.377 9.912,4.13c2.563,2.753 3.845,6.627 3.845,11.621c0,0.304 -0.009,0.76 -0.028,1.367l-22.559,0c0.19,3.323 1.13,5.868 2.82,7.634c1.69,1.766 3.798,2.649 6.323,2.649c1.88,-0 3.485,-0.494 4.814,-1.481c1.329,-0.988 2.383,-2.564 3.161,-4.729Zm-16.833,-8.288l16.89,-0c-0.227,-2.545 -0.873,-4.453 -1.936,-5.725c-1.633,-1.975 -3.751,-2.962 -6.352,-2.962c-2.355,-0 -4.334,0.788 -5.939,2.364c-1.604,1.576 -2.492,3.683 -2.663,6.323Z" style="fill:#65b400;fill-rule:nonzero;"/><path d="M555.014,216.647l0,-30.249l4.615,-0l-0,4.301c2.221,-3.323 5.43,-4.985 9.627,-4.985c1.823,0 3.499,0.328 5.027,0.983c1.529,0.655 2.673,1.514 3.432,2.577c0.76,1.064 1.292,2.327 1.596,3.789c0.189,0.949 0.284,2.611 0.284,4.984l0,18.6l-5.127,-0l0,-18.4c0,-2.089 -0.199,-3.651 -0.598,-4.686c-0.399,-1.035 -1.106,-1.861 -2.122,-2.478c-1.016,-0.617 -2.207,-0.926 -3.574,-0.926c-2.184,0 -4.069,0.693 -5.654,2.08c-1.586,1.386 -2.379,4.016 -2.379,7.889l0,16.521l-5.127,-0Z" style="fill:#65b400;fill-rule:nonzero;"/><path d="M607.195,205.567l5.042,0.655c-0.551,3.475 -1.961,6.195 -4.23,8.16c-2.269,1.966 -5.056,2.948 -8.36,2.948c-4.139,0 -7.467,-1.353 -9.983,-4.059c-2.516,-2.705 -3.774,-6.584 -3.774,-11.635c0,-3.266 0.541,-6.124 1.624,-8.573c1.082,-2.45 2.729,-4.287 4.941,-5.512c2.213,-1.225 4.619,-1.837 7.221,-1.837c3.285,0 5.972,0.831 8.061,2.492c2.088,1.662 3.427,4.021 4.016,7.078l-4.985,0.769c-0.475,-2.031 -1.315,-3.56 -2.521,-4.585c-1.205,-1.026 -2.663,-1.538 -4.372,-1.538c-2.582,-0 -4.68,0.925 -6.294,2.777c-1.614,1.851 -2.422,4.78 -2.422,8.787c0,4.063 0.779,7.016 2.336,8.858c1.557,1.842 3.589,2.763 6.095,2.763c2.013,-0 3.694,-0.617 5.042,-1.852c1.348,-1.234 2.203,-3.133 2.563,-5.696Z" style="fill:#65b400;fill-rule:nonzero;"/><path d="M637.331,206.905l5.297,0.656c-0.835,3.095 -2.383,5.497 -4.642,7.206c-2.26,1.709 -5.146,2.563 -8.659,2.563c-4.425,0 -7.933,-1.362 -10.525,-4.087c-2.592,-2.725 -3.888,-6.546 -3.888,-11.465c0,-5.088 1.311,-9.038 3.931,-11.848c2.62,-2.811 6.019,-4.216 10.197,-4.216c4.045,0 7.349,1.377 9.912,4.13c2.564,2.753 3.845,6.627 3.845,11.621c0,0.304 -0.009,0.76 -0.028,1.367l-22.559,0c0.19,3.323 1.13,5.868 2.82,7.634c1.69,1.766 3.798,2.649 6.323,2.649c1.88,-0 3.485,-0.494 4.814,-1.481c1.329,-0.988 2.383,-2.564 3.162,-4.729Zm-16.834,-8.288l16.891,-0c-0.228,-2.545 -0.874,-4.453 -1.937,-5.725c-1.633,-1.975 -3.751,-2.962 -6.352,-2.962c-2.355,-0 -4.334,0.788 -5.939,2.364c-1.604,1.576 -2.492,3.683 -2.663,6.323Z" style="fill:#65b400;fill-rule:nonzero;"/><path d="M28.776,75.991l15.739,-31.476l15.738,31.476l-31.477,0Z"/><path d="M44.515,1011.4l-0,-941.709" style="fill:none;stroke:#000;stroke-width:4.17px;"/><path d="M1428.16,995.666l31.476,15.739l-31.476,15.738l-0,-31.477Z"/><path d="M44.515,1011.4l1389.94,-0" style="fill:none;stroke:#000;stroke-width:4.17px;"/><path d="M876.858,267.996l0,743.409" style="fill:none;stroke:#000;stroke-width:4.17px;"/><path d="M661.502,392.839l-0,618.566" style="fill:none;stroke:#000;stroke-width:4.17px;"/><path d="M1092.21,340.014l0,671.391" style="fill:none;stroke:#000;stroke-width:4.17px;"/><path d="M692.979,1113.9l-31.477,15.738l31.477,15.738l-0,-31.476Z"/><path d="M845.382,1113.9l31.476,15.738l-31.476,15.738l-0,-31.476Z"/><path d="M686.683,1129.64l164.994,0" style="fill:none;stroke:#000;stroke-width:4.17px;stroke-linecap:round;"/><path d="M908.335,1113.9l-31.477,15.738l31.477,15.738l-0,-31.476Z"/><path d="M1060.74,1113.9l31.476,15.738l-31.476,15.738l-0,-31.476Z"/><path d="M902.039,1129.64l164.994,0" style="fill:none;stroke:#000;stroke-width:4.17px;stroke-linecap:round;"/><path d="M725.636,1197.99l16.036,-41.756l5.952,0l17.09,41.756l-39.078,0Zm7.662,-4.927l23.213,-0l-9.029,-23.784c-1.348,-3.569 -2.336,-6.456 -2.962,-8.658c-0.513,2.582 -1.263,5.24 -2.25,7.975l-8.972,24.467Z" style="fill-rule:nonzero;"/><path d="M765.085,1197.99l11.051,-15.722l-10.225,-14.527l6.408,0l4.643,7.093c0.874,1.348 1.576,2.478 2.108,3.389c0.835,-1.253 1.604,-2.364 2.307,-3.332l5.098,-7.15l6.124,0l-10.453,14.242l11.251,16.007l-6.295,0l-6.209,-9.399l-1.652,-2.535l-7.947,11.934l-6.209,0Z" style="fill-rule:nonzero;"/><path d="M940.992,1197.99l16.036,-41.756l5.953,0l17.09,41.756l-39.079,0Zm7.662,-4.927l23.213,-0l-9.029,-23.784c-1.348,-3.569 -2.335,-6.456 -2.962,-8.658c-0.513,2.582 -1.263,5.24 -2.25,7.975l-8.972,24.467Z" style="fill-rule:nonzero;"/><path d="M980.441,1197.99l11.051,-15.722l-10.225,-14.527l6.409,0l4.642,7.093c0.874,1.348 1.576,2.478 2.108,3.389c0.835,-1.253 1.605,-2.364 2.307,-3.332l5.099,-7.15l6.123,0l-10.453,14.242l11.251,16.007l-6.295,0l-6.209,-9.399l-1.652,-2.535l-7.947,11.934l-6.209,0Z" style="fill-rule:nonzero;"/><g><path d="M661.502,392.839l215.356,-124.843" style="fill:none;stroke:#69c;stroke-width:4.17px;"/><path d="M876.858,267.996l215.356,-124.842" style="fill:none;stroke:#69c;stroke-width:4.17px;"/><path d="M446.146,517.681l215.356,-124.842" style="fill:none;stroke:#69c;stroke-width:4.17px;"/></g><g><path d="M661.502,392.839l430.712,-52.825" style="fill:none;stroke:#048;stroke-width:3.81px;"/><path d="M876.858,366.426l430.713,-52.824" style="fill:none;stroke:#048;stroke-width:3.81px;"/><path d="M446.146,419.251l430.712,-52.825" style="fill:none;stroke:#048;stroke-width:3.81px;"/></g><path d="M876.858,267.996l215.356,72.018" style="fill:none;stroke:#65b400;stroke-width:3.81px;"/><path d="M1092.21,340.014l215.357,72.019" style="fill:none;stroke:#65b400;stroke-width:3.81px;"/><path d="M661.502,195.978l215.356,72.018" style="fill:none;stroke:#65b400;stroke-width:3.81px;"/></svg>