<?xml version="1.0" encoding="UTF-8" standalone="no"?><!DOCTYPE svg PUBLIC "-//W3C//DTD SVG 1.1//EN" "http://www.w3.org/Graphics/SVG/1.1/DTD/svg11.dtd"><svg width="100%" height="100%" viewBox="0 0 2088 636" version="1.1" xmlns="http://www.w3.org/2000/svg" xmlns:xlink="http://www.w3.org/1999/xlink" xml:space="preserve" xmlns:serif="http://www.serif.com/" style="fill-rule:evenodd;clip-rule:evenodd;stroke-linecap:round;stroke-linejoin:round;stroke-miterlimit:1.5;"><rect x="2.083" y="216.743" width="416.667" height="416.667" style="fill:none;stroke:#000;stroke-width:4.17px;"/><rect x="418.75" y="216.743" width="416.667" height="416.667" style="fill:none;stroke:#000;stroke-width:4.17px;"/><rect x="835.417" y="216.743" width="416.667" height="416.667" style="fill:none;stroke:#000;stroke-width:4.17px;"/><rect x="1252.08" y="216.743" width="416.667" height="416.667" style="fill:none;stroke:#000;stroke-width:4.17px;"/><rect x="1668.75" y="216.743" width="416.667" height="416.667" style="fill:none;stroke:#000;stroke-width:4.17px;"/><path d="M2.083,425.076l2083.33,0" style="fill:none;stroke:#000;stroke-width:4.17px;stroke-linecap:butt;"/><ellipse cx="210.417" cy="425.076" rx="14.076" ry="14.218" style="fill:none;stroke:#000;stroke-width:4.17px;"/><ellipse cx="627.083" cy="425.076" rx="14.076" ry="14.218" style="stroke:#000;stroke-width:4.17px;"/><ellipse cx="1043.75" cy="425.076" rx="14.076" ry="14.218" style="stroke:#000;stroke-width:4.17px;"/><ellipse cx="1460.42" cy="425.076" rx="14.076" ry="14.218" style="stroke:#000;stroke-width:4.17px;"/><ellipse cx="1877.08" cy="425.076" rx="14.076" ry="14.218" style="fill:none;stroke:#000;stroke-width:4.17px;"/><path d="M866.893,49.226l-31.476,15.738l31.476,15.738l0,-31.476Z"/><path d="M1220.61,49.226l31.476,15.738l-31.476,15.738l-0,-31.476Z"/><path d="M860.598,64.964l366.304,0" style="fill:none;stroke:#000;stroke-width:4.17px;"/><path d="M1014.69,53.687l20.618,-53.687l7.654,0l21.972,53.687l-50.244,-0Zm9.851,-6.336l29.846,0l-11.609,-30.579c-1.733,-4.589 -3.002,-8.3 -3.808,-11.132c-0.659,3.32 -1.624,6.738 -2.893,10.254l-11.536,31.457Z" style="fill-rule:nonzero;"/><path d="M1065.4,53.687l14.209,-20.215l-13.147,-18.677l8.24,-0l5.969,9.119c1.123,1.733 2.027,3.186 2.71,4.357c1.074,-1.611 2.063,-3.039 2.967,-4.284l6.555,-9.192l7.873,-0l-13.44,18.31l14.466,20.582l-8.094,-0l-7.983,-12.085l-2.124,-3.26l-10.217,15.345l-7.984,-0Z" style="fill-rule:nonzero;"/><path d="M1041.21,348.909l-0,-5.833l5.072,0l0,5.833l-5.072,0Zm-0,35.476l-0,-29.925l5.072,0l0,29.925l-5.072,0Z" style="fill-rule:nonzero;"/><path d="M602.23,348.909l0,-5.833l5.072,0l0,5.833l-5.072,0Zm0,35.476l0,-29.925l5.072,0l0,29.925l-5.072,0Z" style="fill-rule:nonzero;"/><rect x="613.051" y="366.887" width="15.582" height="5.1" style="fill-rule:nonzero;"/><path d="M651.936,384.385l-5.072,0l0,-32.32c-1.221,1.165 -2.822,2.329 -4.804,3.494c-1.982,1.165 -3.762,2.038 -5.34,2.621l0,-4.903c2.837,-1.334 5.317,-2.95 7.439,-4.847c2.123,-1.897 3.626,-3.738 4.509,-5.523l3.268,0l0,41.478Z" style="fill-rule:nonzero;"/><path d="M782.724,139.031l-0,-5.833l5.072,0l-0,5.833l-5.072,0Zm-0,35.477l-0,-29.926l5.072,0l-0,29.926l-5.072,-0Z" style="fill-rule:nonzero;"/><rect x="793.544" y="157.009" width="15.582" height="5.1" style="fill-rule:nonzero;"/><path d="M832.43,174.508l-5.072,-0l-0,-32.321c-1.221,1.165 -2.823,2.33 -4.805,3.494c-1.981,1.165 -3.761,2.039 -5.339,2.621l-0,-4.903c2.836,-1.334 5.316,-2.949 7.439,-4.847c2.122,-1.897 3.625,-3.738 4.508,-5.523l3.269,0l-0,41.479Z" style="fill-rule:nonzero;"/><path d="M843.025,175.212l11.975,-42.718l4.058,0l-11.947,42.718l-4.086,-0Z" style="fill-rule:nonzero;"/><path d="M888.11,169.633l-0,4.875l-27.305,-0c-0.037,-1.222 0.16,-2.396 0.592,-3.523c0.695,-1.859 1.808,-3.691 3.339,-5.494c1.531,-1.804 3.743,-3.889 6.636,-6.256c4.49,-3.682 7.523,-6.598 9.101,-8.749c1.578,-2.151 2.367,-4.185 2.367,-6.101c0,-2.01 -0.718,-3.705 -2.155,-5.086c-1.437,-1.381 -3.311,-2.071 -5.622,-2.071c-2.442,-0 -4.396,0.733 -5.861,2.198c-1.465,1.465 -2.207,3.494 -2.226,6.086l-5.213,-0.535c0.357,-3.889 1.7,-6.852 4.03,-8.89c2.329,-2.039 5.457,-3.058 9.383,-3.058c3.964,0 7.101,1.099 9.411,3.297c2.311,2.198 3.466,4.922 3.466,8.172c0,1.653 -0.338,3.278 -1.014,4.875c-0.676,1.596 -1.799,3.278 -3.367,5.044c-1.569,1.765 -4.175,4.189 -7.82,7.27c-3.043,2.554 -4.997,4.287 -5.861,5.198c-0.864,0.911 -1.578,1.827 -2.141,2.748l20.26,-0Z" style="fill-rule:nonzero;"/><path d="M1428.32,349.078l-0,-5.833l5.072,0l-0,5.833l-5.072,0Zm-0,35.476l-0,-29.925l5.072,0l-0,29.925l-5.072,0Z" style="fill-rule:nonzero;"/><path d="M1451.77,377.876l-0,-11.327l-11.243,-0l-0,-4.734l11.243,-0l-0,-11.243l4.79,-0l0,11.243l11.243,-0l0,4.734l-11.243,-0l0,11.327l-4.79,0Z" style="fill-rule:nonzero;"/><path d="M1492.51,384.554l-5.073,0l0,-32.32c-1.221,1.165 -2.822,2.33 -4.804,3.494c-1.982,1.165 -3.762,2.038 -5.34,2.621l0,-4.903c2.837,-1.334 5.317,-2.949 7.439,-4.847c2.123,-1.897 3.626,-3.738 4.509,-5.523l3.269,0l-0,41.478Z" style="fill-rule:nonzero;"/><path d="M1192.15,139.031l-0,-5.833l5.072,0l-0,5.833l-5.072,0Zm-0,35.477l-0,-29.926l5.072,0l-0,29.926l-5.072,-0Z" style="fill-rule:nonzero;"/><path d="M1215.59,167.829l-0,-11.327l-11.243,-0l-0,-4.734l11.243,-0l-0,-11.243l4.79,-0l-0,11.243l11.243,-0l0,4.734l-11.243,-0l-0,11.327l-4.79,0Z" style="fill-rule:nonzero;"/><path d="M1256.34,174.508l-5.072,-0l0,-32.321c-1.221,1.165 -2.822,2.33 -4.804,3.494c-1.982,1.165 -3.762,2.039 -5.34,2.621l0,-4.903c2.837,-1.334 5.316,-2.949 7.439,-4.847c2.123,-1.897 3.626,-3.738 4.509,-5.523l3.268,0l0,41.479Z" style="fill-rule:nonzero;"/><path d="M1266.93,175.212l11.976,-42.718l4.058,0l-11.948,42.718l-4.086,-0Z" style="fill-rule:nonzero;"/><path d="M1312.02,169.633l0,4.875l-27.304,-0c-0.038,-1.222 0.159,-2.396 0.591,-3.523c0.695,-1.859 1.808,-3.691 3.339,-5.494c1.531,-1.804 3.743,-3.889 6.636,-6.256c4.49,-3.682 7.524,-6.598 9.102,-8.749c1.578,-2.151 2.367,-4.185 2.367,-6.101c-0,-2.01 -0.719,-3.705 -2.156,-5.086c-1.437,-1.381 -3.311,-2.071 -5.621,-2.071c-2.442,-0 -4.396,0.733 -5.861,2.198c-1.466,1.465 -2.208,3.494 -2.226,6.086l-5.213,-0.535c0.357,-3.889 1.7,-6.852 4.029,-8.89c2.329,-2.039 5.457,-3.058 9.383,-3.058c3.964,0 7.101,1.099 9.412,3.297c2.31,2.198 3.466,4.922 3.466,8.172c-0,1.653 -0.338,3.278 -1.015,4.875c-0.676,1.596 -1.798,3.278 -3.367,5.044c-1.569,1.765 -4.175,4.189 -7.819,7.27c-3.044,2.554 -4.997,4.287 -5.861,5.198c-0.865,0.911 -1.578,1.827 -2.142,2.748l20.26,-0Z" style="fill-rule:nonzero;"/></svg>